<svg id="Layer_1" data-name="Layer 1" xmlns="http://www.w3.org/2000/svg" width="80" height="80" viewBox="0 0 80 80">
  <defs>
    <style>
      .cls-1 {
        fill: #f2bce8;
        stroke: #3841f2;
        stroke-miterlimit: 10;
        stroke-width: 3px;
      }

      .cls-2 {
        fill: #3841f2;
      }
    </style>
  </defs>
  <circle class="cls-1" cx="40.3" cy="39.23" r="33.41"/>
  <path class="cls-2" d="M53.47,25.09a47.29,47.29,0,0,0-2.55-6.75C50,16.4,49,14,47.41,12.57a4.2,4.2,0,0,0-4.84-.65,8.21,8.21,0,0,0-2.21,2,48.59,48.59,0,0,0-4.11,5.45c-4.68,7.18-7.44,15.44-10,23.54a3.28,3.28,0,0,0,1.18,3.47,3.44,3.44,0,0,0,3.67.26q5-2.25,10.06-4.31,2.56-1,5.14-2c.86-.33,1.71-.68,2.59-1a8.6,8.6,0,0,0,.87-.24c.23-.06.23,0,0,0a1.4,1.4,0,0,1-.83-.41l-.52-4Q40.81,49.78,32.12,64.26c-2.19,3.66,3.52,7,5.71,3.34Q46.5,53.11,54.06,38a3.38,3.38,0,0,0-.51-4,6.33,6.33,0,0,0-6.47-1c-2.16.71-4.28,1.62-6.39,2.46q-6.54,2.61-13,5.51l4.85,3.73A131.44,131.44,0,0,1,38,30,58.4,58.4,0,0,1,41.73,23c.62-1,1.33-2,2-2.86.42-.55.86-1.08,1.32-1.6l.55-.62a5,5,0,0,1,.39-.41c.3-.3.11-.18-.57.35H43.65c-.7-.12-1.11-1.1-.47,0L43.86,19q.72,1.29,1.35,2.64a35.83,35.83,0,0,1,1.88,5.17c1.19,4.07,7.57,2.34,6.38-1.76Z"/>
</svg>
