<svg id="Layer_1" data-name="Layer 1" xmlns="http://www.w3.org/2000/svg" width="150" height="65" viewBox="0 0 150 65">
  <defs>
    <style>
      .cls-1 {
        fill: #3841f2;
      }
    </style>
  </defs>
  <g>
    <path class="cls-1" d="M37.38,17.79a36.15,36.15,0,0,0-2-5.25c-.69-1.46-1.48-3.31-2.75-4.35-3.31-2.7-6.46,2.55-8,4.86-3.7,5.51-5.84,11.94-7.87,18.21-.73,2.27,1.84,3.65,3.67,2.82,2.51-1.13,5-2.22,7.6-3.25,1.26-.51,2.53-1,3.8-1.5l1.8-.69a5.16,5.16,0,0,0,.79-.24c.31-.19.46.46-.51-.33l-.39-3Q27.8,36.46,21.23,47.42c-1.66,2.77,2.66,5.29,4.32,2.52Q32.11,39,37.83,27.56a2.57,2.57,0,0,0-.39-3c-2.91-2.36-6.43-.24-9.41.94q-5.12,2-10.13,4.29l3.67,2.83a99.49,99.49,0,0,1,4.05-11,42.87,42.87,0,0,1,2.76-5.13c.49-.79,1-1.56,1.57-2.3.27-.35.56-.7.85-1s.36-.42.55-.62c.4-.37.38-.41-.07-.13H30c-.55-.12-.83-.83-.27.11l.45.79c.37.66.71,1.33,1,2a29.14,29.14,0,0,1,1.4,3.86c.9,3.08,5.72,1.77,4.82-1.33Z"/>
    <path class="cls-1" d="M47.56,20a8.81,8.81,0,0,0-3.05,4.12,13.59,13.59,0,0,0-.7,4.3c0,1.77,0,3.79,1.32,5.15a5,5,0,0,0,5.06,1.05,17.54,17.54,0,0,0,4.2-2,17.18,17.18,0,0,0,3.89-3.1,11.44,11.44,0,0,0,2.6-4.61c.49-1.82.64-4.35-.85-5.75-1.82-1.73-4.59-.57-6.65.06s-3.89,1.35-5.79,2.15a2.51,2.51,0,0,0-.9,3.42,2.58,2.58,0,0,0,3.42.9c-.4.17,0,0,0,0l.54-.21.86-.34c.64-.24,1.3-.47,2-.69,1.28-.43,2.57-.81,3.87-1.13a3.85,3.85,0,0,1,.4-.1c-.05,0-.51,0-.14,0l-.33-.05-1-.73-.13-.27c.05.22.05.23,0,0,0-.37,0,.07,0,.16v.4l0,.4c0,.18,0,.13,0-.18l-.06.3a6.77,6.77,0,0,1-.22.77c0,.13-.23.55,0,.06l-.18.36a7.14,7.14,0,0,1-.4.71c-.07.11-.14.23-.22.34s-.47.55-.1.14a16,16,0,0,1-1.14,1.19l-.31.27s-.53.42-.23.19l-.16.12-.43.3a26.84,26.84,0,0,1-3.2,1.85,1.48,1.48,0,0,0-.31.15c.05-.05.55-.2.12-.06-.22.07-.43.15-.65.21l-.33.07c0-.12.57,0,.17,0h-.32c.41.07.48.08.22,0l-.14,0c.13-.08.49.26.2.06.47.32.29.24.16.1l.19.23c.11.3.13.36.07.18a2.25,2.25,0,0,0-.09-.35c-.09-.34,0,.46,0,.11,0-.12,0-.25,0-.37,0-.29,0-.58,0-.88,0-.56,0-1.13.07-1.69s0,.08,0,.13a2.34,2.34,0,0,1,.08-.52,8.11,8.11,0,0,1,.21-.85c0-.11.06-.22.1-.33a2.25,2.25,0,0,1,.08-.24c.07-.18,0-.11-.09.2,0-.21.28-.56.39-.74a2.68,2.68,0,0,1,.18-.28c.25-.38-.25.25,0,0s.18-.2.28-.3.54-.44,0-.05a2.74,2.74,0,0,0,1.15-1.5A2.58,2.58,0,0,0,51,20.91c-.66-1-2.31-1.75-3.42-.9Z"/>
    <path class="cls-1" d="M75.36,16.75a17,17,0,0,0-6,5.89,2.52,2.52,0,0,0,2.16,3.76l10.8-.53-2.5-2.5a2,2,0,0,1-.3,1.3,10.36,10.36,0,0,1-.84,1.27c-.93,1.22-1.94,2.39-2.94,3.55-2,2.33-4.15,4.55-6.36,6.69S70.6,42,72.92,39.72c2.47-2.39,4.83-4.88,7.06-7.5,2.1-2.47,5-5.34,4.85-8.85a2.53,2.53,0,0,0-2.5-2.5l-10.8.53,2.16,3.77a11.67,11.67,0,0,1,4.19-4.1c2.78-1.62.27-5.94-2.52-4.32Z"/>
    <path class="cls-1" d="M89.21,20.52A56,56,0,0,1,87.5,33.81a2.5,2.5,0,0,0,4.82,1.33,65,65,0,0,0,1.89-14.62,2.5,2.5,0,1,0-5,0Z"/>
    <path class="cls-1" d="M102.36,34.19a70.87,70.87,0,0,1,15-20.43l-4.18-1.1a202.92,202.92,0,0,0,9.62,39l4.17-2.44-1.1-1.07c-2.3-2.25-5.84,1.29-3.53,3.54l1.1,1.07c1.69,1.65,5,0,4.18-2.43a202.16,202.16,0,0,1-9.61-39c-.29-2-3-2.27-4.18-1.11A74.92,74.92,0,0,0,98,31.67a2.57,2.57,0,0,0,.9,3.42,2.53,2.53,0,0,0,3.42-.9Z"/>
    <path class="cls-1" d="M100.84,30.84q20-4.93,40.25-8.38c1.91-.33,1.1-3.23-.8-2.91Q120,23,100,27.94c-1.88.46-1.08,3.37.8,2.9Z"/>
    <path class="cls-1" d="M90.39,12.71c3.22,0,3.22-5,0-5s-3.22,5,0,5Z"/>
  </g>
  <g>
    <path class="cls-1" d="M36,44.21a30.73,30.73,0,0,0-3.17,7.95.66.66,0,0,0,1.1.64l4.72-4-1.1-.29.73,3.81c.14.7,1.07.55,1.27,0A45,45,0,0,1,45.4,41.68c.51-.69-.63-1.34-1.13-.67a45.89,45.89,0,0,0-6,10.91h1.27l-.73-3.81a.67.67,0,0,0-1.1-.29l-4.72,4,1.1.64a29.65,29.65,0,0,1,3-7.64A.65.65,0,0,0,36,44.21Z"/>
    <path class="cls-1" d="M43.62,51.79A11.78,11.78,0,0,1,45.79,47l-1.2-.16,2.4,6a.68.68,0,0,0,.81.46.65.65,0,0,0,.46-.81l-2.4-6a.68.68,0,0,0-1.21-.16,12.66,12.66,0,0,0-2.3,5.14.67.67,0,0,0,.46.81.67.67,0,0,0,.81-.46Z"/>
    <path class="cls-1" d="M41.87,50.6h3.87a.68.68,0,0,0,.66-.66.67.67,0,0,0-.66-.66H41.87a.66.66,0,0,0-.66.66.67.67,0,0,0,.66.66Z"/>
    <path class="cls-1" d="M50.06,47.41c-.1,1.58-.26,3.15-.51,4.71a.68.68,0,0,0,.46.81.66.66,0,0,0,.81-.46,50.8,50.8,0,0,0,.55-5.06.66.66,0,1,0-1.31,0Z"/>
    <path class="cls-1" d="M50.18,47.4A12.27,12.27,0,0,1,53.59,47L53,46.48c.28,1.51-1,2.79-1.91,3.78a.67.67,0,0,0,.29,1.1,28.43,28.43,0,0,1,4.36,1.86c.75.39,1.42-.74.67-1.14a30.59,30.59,0,0,0-4.68-2l.3,1.1c1.34-1.38,2.62-3,2.24-5.06a.65.65,0,0,0-.63-.48,14,14,0,0,0-3.76.48.66.66,0,0,0,.35,1.27Z"/>
    <path class="cls-1" d="M57,46.57a18,18,0,0,0,1,5.34.66.66,0,0,0,1.29-.18,6,6,0,0,1,1.38-3.11l-1.1-.29a17,17,0,0,0,1.42,4,.67.67,0,0,0,1.14,0,39.88,39.88,0,0,1,4.95-7c.56-.64-.37-1.57-.93-.94A42.24,42.24,0,0,0,61,51.68h1.14A15.78,15.78,0,0,1,60.84,48a.66.66,0,0,0-1.1-.29,7.56,7.56,0,0,0-1.77,4l1.3-.17a16.37,16.37,0,0,1-1-5c0-.84-1.35-.85-1.32,0Z"/>
    <path class="cls-1" d="M64.83,52.42a34.11,34.11,0,0,1,3.48-5L67.19,47c.15,1.62.25,3.24.28,4.86a.66.66,0,0,0,1.31,0q0-2.43-.27-4.86a.69.69,0,0,0-.41-.6.66.66,0,0,0-.72.14,35.55,35.55,0,0,0-3.69,5.24.66.66,0,0,0,1.14.66Z"/>
    <path class="cls-1" d="M65.34,50.91h4.17a.66.66,0,0,0,.66-.66.67.67,0,0,0-.66-.66H65.34a.66.66,0,0,0,0,1.32Z"/>
    <path class="cls-1" d="M73.16,46.64c-.63.69-1.23,1.41-1.79,2.16a.65.65,0,0,0,.39,1l1.28.38.62.18.29.09s-.15-.4-.1-.12v-.35c0,.12-.28.38-.4.51l-.57.68c-.38.45-.77.89-1.16,1.33-.57.63.36,1.56.93.93.41-.47.83-.94,1.23-1.41l.61-.72a3,3,0,0,0,.58-.81c.28-.77-.38-1.2-1-1.38l-2-.58.4,1c.49-.66,1-1.28,1.58-1.89s-.36-1.56-.93-.93Z"/>
    <path class="cls-1" d="M75.68,47.34a11,11,0,0,0,2.67-.28l-.75-.3c.06.14-.06.37-.11.5s-.26.52-.38.78c-.26.56-.51,1.13-.74,1.7a33.42,33.42,0,0,0-1.17,3.41A.67.67,0,0,0,76,54a9.81,9.81,0,0,1,3-.36c.84,0,.84-1.29,0-1.32a11.13,11.13,0,0,0-3.4.41l.81.81a32.26,32.26,0,0,1,1.3-3.73c.25-.59.53-1.17.81-1.74a2.19,2.19,0,0,0,.16-1.93.65.65,0,0,0-.74-.31,9.1,9.1,0,0,1-2.32.23.66.66,0,0,0,0,1.32Z"/>
    <path class="cls-1" d="M79.93,45.28a17,17,0,0,0,2.15,4.9.66.66,0,0,0,1.14-.67,15.39,15.39,0,0,1-2-4.58.67.67,0,0,0-.81-.46.65.65,0,0,0-.46.81Z"/>
    <path class="cls-1" d="M84.92,45.62a56.3,56.3,0,0,0-2.54,8c-.19.83,1.08,1.18,1.27.35a56.3,56.3,0,0,1,2.54-8,.67.67,0,0,0-.46-.81.66.66,0,0,0-.81.46Z"/>
    <path class="cls-1" d="M86.79,53.43a21.19,21.19,0,0,1,.51-6.3H86A20.78,20.78,0,0,0,89.34,53a.66.66,0,0,0,1.12-.46c0-1.24,0-2.47,0-3.71a9.56,9.56,0,0,1,.44-3.41.65.65,0,0,0-.46-.81.66.66,0,0,0-.81.46,10.39,10.39,0,0,0-.49,3.6c0,1.29,0,2.58,0,3.87l1.13-.47a18.91,18.91,0,0,1-3-5.32c-.22-.55-1.1-.7-1.27,0a22.22,22.22,0,0,0-.55,6.65c0,.84,1.37.85,1.31,0Z"/>
    <path class="cls-1" d="M94.94,45.05c-.65.79-1.33,1.56-2,2.36a.93.93,0,0,0,0,1.22,4.42,4.42,0,0,0,1.21.76l.62.35.2.12-.06-.06a.81.81,0,0,1-.08.25c-.17.47-.37.94-.56,1.4-.39.94-.82,1.85-1.26,2.76-.38.76.76,1.42,1.13.66.67-1.36,1.29-2.75,1.84-4.16.24-.61.43-1.28-.1-1.8a4.54,4.54,0,0,0-1-.61L94.44,48l-.31-.17c-.16-.14-.2-.13-.11,0v.35c0-.17.29-.36.4-.49l.5-.61,1-1.15c.54-.64-.39-1.58-.93-.93Z"/>
    <path class="cls-1" d="M97.39,45.48v8.25a.66.66,0,0,0,1.31,0V45.48a.66.66,0,0,0-1.31,0Z"/>
    <path class="cls-1" d="M98.2,51.27l4.71-8.53c.41-.74-.73-1.41-1.14-.67l-4.71,8.54c-.4.74.73,1.4,1.14.66Z"/>
    <path class="cls-1" d="M98,49.92l4.36,3.8a.68.68,0,0,0,.93,0,.66.66,0,0,0,0-.93L98.91,49A.68.68,0,0,0,98,49a.66.66,0,0,0,0,.93Z"/>
    <path class="cls-1" d="M106.12,53.6A38.82,38.82,0,0,1,109.45,44l-1.2-.16c.64,3.41,1.28,6.83,2.18,10.18a.66.66,0,0,0,1.27-.35c-.9-3.35-1.54-6.77-2.18-10.18a.66.66,0,0,0-1.2-.16,39.7,39.7,0,0,0-3.47,9.91c-.17.83,1.1,1.18,1.27.35Z"/>
    <path class="cls-1" d="M105.7,50.93c1.52,0,3,0,4.57,0,.75,0,1.49,0,2.24.07.36,0,.72,0,1.08.05a1,1,0,0,1,.68.18.66.66,0,0,0,.93-.93,2.51,2.51,0,0,0-1.79-.58c-.87-.05-1.73-.08-2.6-.1-1.7,0-3.41,0-5.11,0a.66.66,0,0,0,0,1.32Z"/>
  </g>
</svg>
