<svg id="Layer_1" data-name="Layer 1" xmlns="http://www.w3.org/2000/svg" width="150" height="65" viewBox="0 0 150 65">
  <defs>
    <style>
      .cls-1 {
        fill: none;
      }

      .cls-2 {
        fill: #fff;
      }
    </style>
  </defs>
  <rect class="cls-1" x="145.62" y="-93.21" width="325.33" height="400"/>
  <g>
    <path class="cls-2" d="M33,19.86a36.6,36.6,0,0,0-2-5.25c-.69-1.46-1.48-3.3-2.75-4.34-3.31-2.71-6.46,2.54-8,4.85-3.71,5.51-5.85,11.94-7.87,18.21C11.61,35.61,14.19,37,16,36.15q3.77-1.69,7.59-3.25l3.81-1.5c.6-.23,1.2-.47,1.8-.68a5.19,5.19,0,0,0,.79-.25c.3-.18.46.46-.51-.33l-.39-3Q23.4,38.53,16.83,49.49c-1.66,2.77,2.66,5.29,4.31,2.53q6.57-11,12.28-22.39a2.52,2.52,0,0,0-.39-3c-2.9-2.37-6.43-.25-9.41.93q-5.1,2-10.12,4.3l3.67,2.82a98.23,98.23,0,0,1,4-11A45.11,45.11,0,0,1,24,18.51c.5-.78,1-1.56,1.58-2.3.27-.35.55-.7.85-1s.36-.42.55-.62c.4-.37.37-.41-.07-.13H25.55c-.56-.12-.84-.83-.27.12l.45.78c.36.66.71,1.33,1,2a26.44,26.44,0,0,1,1.4,3.85c.91,3.08,5.73,1.77,4.83-1.33Z"/>
    <path class="cls-2" d="M43.15,22.08a8.79,8.79,0,0,0-3,4.12,13.36,13.36,0,0,0-.7,4.3c0,1.78,0,3.79,1.31,5.15a5,5,0,0,0,5.07,1.06A17.58,17.58,0,0,0,50,34.66a17.4,17.4,0,0,0,3.89-3.1A11.56,11.56,0,0,0,56.48,27c.49-1.81.63-4.35-.85-5.75-1.82-1.73-4.6-.57-6.65.06s-3.89,1.35-5.79,2.15a2.51,2.51,0,0,0-.9,3.43,2.58,2.58,0,0,0,3.42.89c-.4.17,0,0,0,0l.54-.22.85-.33c.65-.25,1.3-.48,2-.7,1.27-.43,2.57-.81,3.87-1.13a2.2,2.2,0,0,1,.4-.09c-.06,0-.51,0-.14,0l-.33-.05-1-.73-.13-.27c0,.23.05.24,0,0,0-.37,0,.07,0,.16v.4l0,.4c0,.19,0,.13,0-.17l-.06.29a6.77,6.77,0,0,1-.22.77c0,.13-.23.55,0,.06,0,.12-.11.24-.17.36a8.13,8.13,0,0,1-.4.71c-.07.12-.15.23-.22.34s-.48.55-.1.15c-.38.4-.73.81-1.14,1.18l-.31.27s-.53.42-.23.19-.11.08-.17.12l-.42.3a27.63,27.63,0,0,1-3.21,1.86,1.38,1.38,0,0,0-.3.14c.05-.05.54-.2.12-.06-.22.08-.43.15-.66.21L44,32c0-.11.57,0,.18,0h-.32c.41.07.48.08.22,0l-.15,0c.14-.08.5.26.2.07.47.31.29.23.17.09l.19.23c.1.3.13.36.07.19s-.06-.24-.09-.36c-.09-.34,0,.46,0,.11,0-.12,0-.24,0-.37,0-.29,0-.58,0-.87,0-.57,0-1.13.07-1.7s0,.08,0,.14a3.26,3.26,0,0,1,.09-.53c.06-.28.12-.57.2-.85,0-.11.07-.22.1-.33l.09-.24c.07-.17,0-.11-.09.2,0-.2.27-.56.38-.74a2.75,2.75,0,0,1,.19-.28c.24-.38-.25.25,0,.05l.29-.31c.11-.11.53-.44,0-.05a2.75,2.75,0,0,0,1.15-1.49A2.55,2.55,0,0,0,46.57,23c-.66-1-2.3-1.74-3.42-.9Z"/>
    <path class="cls-2" d="M71,18.82a17.12,17.12,0,0,0-6,5.89,2.53,2.53,0,0,0,2.16,3.77l10.8-.54-2.5-2.5a2,2,0,0,1-.3,1.31A12.51,12.51,0,0,1,74.29,28c-.93,1.22-1.94,2.39-3,3.55q-3,3.5-6.36,6.69c-2.32,2.24,1.22,5.78,3.54,3.54a102,102,0,0,0,7-7.5c2.11-2.47,5.05-5.34,4.86-8.85a2.53,2.53,0,0,0-2.5-2.5l-10.8.54,2.16,3.76a11.6,11.6,0,0,1,4.19-4.1c2.78-1.62.26-5.94-2.53-4.32Z"/>
    <path class="cls-2" d="M84.81,22.59a55.48,55.48,0,0,1-1.72,13.29,2.5,2.5,0,0,0,4.83,1.33,65,65,0,0,0,1.89-14.62,2.52,2.52,0,0,0-2.5-2.5,2.55,2.55,0,0,0-2.5,2.5Z"/>
    <path class="cls-2" d="M98,36.27a71.27,71.27,0,0,1,15-20.44l-4.18-1.1a203.64,203.64,0,0,0,9.61,39l4.18-2.43-1.1-1.08c-2.31-2.24-5.84,1.29-3.54,3.54L119,54.82c1.69,1.65,5,0,4.17-2.43a203.64,203.64,0,0,1-9.61-39c-.28-2-3-2.26-4.18-1.1A75,75,0,0,0,93.64,33.74a2.56,2.56,0,0,0,.89,3.42A2.52,2.52,0,0,0,98,36.27Z"/>
    <path class="cls-2" d="M96.44,32.91q20-4.92,40.25-8.38c1.91-.32,1.1-3.23-.8-2.91Q115.61,25.07,95.64,30c-1.88.46-1.08,3.37.8,2.9Z"/>
    <path class="cls-2" d="M86,14.78c3.21,0,3.22-5,0-5s-3.23,5,0,5Z"/>
  </g>
  <g>
    <path class="cls-2" d="M31.62,46.28a30.49,30.49,0,0,0-3.16,7.95.66.66,0,0,0,1.1.64l4.72-4-1.11-.29.74,3.8c.14.7,1.06.55,1.27,0A45,45,0,0,1,41,43.75c.51-.68-.64-1.34-1.14-.67a46.41,46.41,0,0,0-6,10.91h1.27l-.74-3.8a.66.66,0,0,0-1.1-.29l-4.71,4,1.1.64a29.09,29.09,0,0,1,3-7.63.66.66,0,0,0-1.14-.67Z"/>
    <path class="cls-2" d="M39.22,53.86A11.65,11.65,0,0,1,41.39,49l-1.21-.16,2.41,6a.68.68,0,0,0,.81.46.67.67,0,0,0,.46-.81l-2.41-6a.67.67,0,0,0-1.2-.15A12.67,12.67,0,0,0,38,53.51a.67.67,0,0,0,.46.81.67.67,0,0,0,.81-.46Z"/>
    <path class="cls-2" d="M37.47,52.67h3.87a.66.66,0,0,0,0-1.32H37.47a.66.66,0,0,0,0,1.32Z"/>
    <path class="cls-2" d="M45.65,49.48a46.42,46.42,0,0,1-.5,4.71.68.68,0,0,0,.46.81.65.65,0,0,0,.81-.46c.26-1.67.45-3.36.55-5.06a.67.67,0,0,0-.66-.66.68.68,0,0,0-.66.66Z"/>
    <path class="cls-2" d="M45.78,49.47a12.58,12.58,0,0,1,3.4-.43l-.63-.49c.27,1.51-.95,2.8-1.91,3.78a.66.66,0,0,0,.29,1.1,28.43,28.43,0,0,1,4.36,1.86c.75.39,1.42-.74.67-1.14a30.59,30.59,0,0,0-4.68-2l.29,1.1c1.34-1.38,2.62-3,2.25-5.06a.67.67,0,0,0-.64-.48,14,14,0,0,0-3.75.48.66.66,0,0,0,.35,1.27Z"/>
    <path class="cls-2" d="M52.58,48.65a17.67,17.67,0,0,0,1,5.33.66.66,0,0,0,1.29-.17,6,6,0,0,1,1.38-3.12l-1.1-.29a16.8,16.8,0,0,0,1.42,4,.66.66,0,0,0,1.14,0,40.26,40.26,0,0,1,5-7c.56-.64-.37-1.57-.93-.93a41.63,41.63,0,0,0-5.16,7.27h1.14a15.78,15.78,0,0,1-1.29-3.7.66.66,0,0,0-1.1-.29,7.59,7.59,0,0,0-1.77,4.05l1.29-.18a16.66,16.66,0,0,1-1-5c0-.85-1.35-.85-1.32,0Z"/>
    <path class="cls-2" d="M60.43,54.5a33.67,33.67,0,0,1,3.48-5l-1.12-.46c.15,1.61.24,3.23.28,4.85a.66.66,0,0,0,1.31,0c0-1.62-.12-3.24-.28-4.85A.66.66,0,0,0,63,48.59a36.09,36.09,0,0,0-3.69,5.24.66.66,0,0,0,1.14.67Z"/>
    <path class="cls-2" d="M60.93,53h4.18a.67.67,0,0,0,.66-.66.68.68,0,0,0-.66-.66H60.93a.66.66,0,0,0,0,1.32Z"/>
    <path class="cls-2" d="M68.76,48.71c-.63.69-1.23,1.41-1.79,2.16a.65.65,0,0,0,.39,1l1.28.38.62.18.29.09s-.15-.4-.1-.12V52c0,.12-.29.38-.4.52l-.57.67c-.38.45-.77.89-1.17,1.33-.56.63.37,1.56.93.93l1.24-1.41.61-.72a3.08,3.08,0,0,0,.58-.81c.28-.76-.38-1.2-1-1.38l-2-.58.39,1q.75-1,1.59-1.89c.57-.62-.36-1.56-.93-.93Z"/>
    <path class="cls-2" d="M71.27,49.41a10.4,10.4,0,0,0,2.67-.28l-.74-.3c.06.14-.06.37-.12.5s-.25.52-.37.79c-.26.55-.51,1.12-.74,1.69a33.47,33.47,0,0,0-1.18,3.41.67.67,0,0,0,.81.81,9.85,9.85,0,0,1,3.05-.36c.85,0,.85-1.29,0-1.32a11.2,11.2,0,0,0-3.4.41l.81.81a34.31,34.31,0,0,1,1.31-3.73c.25-.59.53-1.16.8-1.74a2.16,2.16,0,0,0,.17-1.93.67.67,0,0,0-.75-.3,9.47,9.47,0,0,1-2.32.22.66.66,0,0,0,0,1.32Z"/>
    <path class="cls-2" d="M75.52,47.35a17.31,17.31,0,0,0,2.16,4.9.67.67,0,0,0,.9.24.66.66,0,0,0,.23-.9,16.1,16.1,0,0,1-2-4.59.66.66,0,1,0-1.27.35Z"/>
    <path class="cls-2" d="M80.51,47.69a57.56,57.56,0,0,0-2.53,8c-.2.83,1.07,1.18,1.27.35a57.56,57.56,0,0,1,2.53-8,.65.65,0,0,0-.46-.81.68.68,0,0,0-.81.46Z"/>
    <path class="cls-2" d="M82.39,55.5a20.86,20.86,0,0,1,.51-6.3H81.63a21,21,0,0,0,3.3,5.9.67.67,0,0,0,1.13-.46c0-1.24,0-2.47,0-3.71a9.56,9.56,0,0,1,.44-3.41.66.66,0,0,0-.46-.81.67.67,0,0,0-.81.46,10.45,10.45,0,0,0-.49,3.6c0,1.29,0,2.58,0,3.87l1.13-.47a18.91,18.91,0,0,1-3-5.32c-.23-.55-1.11-.69-1.27,0a22.22,22.22,0,0,0-.56,6.65c.06.84,1.38.85,1.32,0Z"/>
    <path class="cls-2" d="M90.54,47.12c-.65.79-1.33,1.56-2,2.37a.92.92,0,0,0,0,1.21,4.78,4.78,0,0,0,1.21.77l.63.34.2.12-.06-.06a1.21,1.21,0,0,1-.08.25c-.17.47-.37.94-.56,1.41-.39.93-.82,1.84-1.27,2.75-.37.76.76,1.43,1.14.66.67-1.36,1.29-2.74,1.84-4.16.23-.61.43-1.28-.1-1.8a4.8,4.8,0,0,0-1-.61L90,50.11l-.31-.17c-.16-.13-.2-.13-.11,0v.35c0-.16.29-.36.4-.49l.5-.61,1-1.14c.54-.65-.39-1.59-.93-.94Z"/>
    <path class="cls-2" d="M93,47.55V55.8a.66.66,0,0,0,1.32,0V47.55a.66.66,0,0,0-1.32,0Z"/>
    <path class="cls-2" d="M93.8,53.34l4.7-8.53c.41-.74-.72-1.41-1.13-.66l-4.71,8.53c-.41.74.73,1.41,1.14.66Z"/>
    <path class="cls-2" d="M93.58,52l4.35,3.8a.68.68,0,0,0,.93,0,.66.66,0,0,0,0-.93l-4.35-3.8a.68.68,0,0,0-.93,0,.66.66,0,0,0,0,.93Z"/>
    <path class="cls-2" d="M101.72,55.68a38.75,38.75,0,0,1,3.33-9.6l-1.2-.16c.64,3.42,1.28,6.83,2.17,10.19a.66.66,0,0,0,1.27-.35c-.89-3.36-1.53-6.77-2.17-10.19a.67.67,0,0,0-1.21-.15,39.8,39.8,0,0,0-3.46,9.91c-.17.82,1.1,1.18,1.27.35Z"/>
    <path class="cls-2" d="M101.3,53c1.52,0,3,0,4.57,0,.75,0,1.49,0,2.24.07l1.07.05a1,1,0,0,1,.69.19.66.66,0,0,0,.93-.94,2.62,2.62,0,0,0-1.8-.58l-2.59-.1c-1.71,0-3.41,0-5.11,0a.66.66,0,0,0,0,1.32Z"/>
  </g>
</svg>
