<svg id="Layer_1" data-name="Layer 1" xmlns="http://www.w3.org/2000/svg" width="352.79" height="60.21" viewBox="0 0 352.79 60.21">
  <defs>
    <style>
      .cls-1 {
        fill: #3841f2;
      }
    </style>
  </defs>
  <g>
    <path class="cls-1" d="M31.83,7.78A45.73,45.73,0,0,0,13.51,22.22c-1.42,1.86.92,4.11,2.83,3.67l23.21-5.4-3.16-2.41a7.62,7.62,0,0,1-1.87,4.2c-1.15,1.57-2.39,3.07-3.59,4.6L23.38,36.5,8.13,55.94a2.59,2.59,0,0,0,0,3.54,2.53,2.53,0,0,0,3.54,0L27.84,38.86l8-10.22c2.48-3.15,5.47-6.31,5.54-10.56a2.54,2.54,0,0,0-3.17-2.41L15,21.07l2.82,3.67A41,41,0,0,1,34.36,12.1a2.52,2.52,0,0,0,.89-3.42,2.56,2.56,0,0,0-3.42-.9Z"/>
    <path class="cls-1" d="M49.66,19.76a83.11,83.11,0,0,0-5.48,21.49c-.2,1.62,1.75,2.83,3.16,2.41a131.15,131.15,0,0,1,14.24-3.43,2.5,2.5,0,0,0-1.33-4.82A133.48,133.48,0,0,0,46,38.83l3.17,2.42a78.1,78.1,0,0,1,5.3-20.16A2.52,2.52,0,0,0,52.74,18a2.56,2.56,0,0,0-3.08,1.75Z"/>
    <path class="cls-1" d="M51.13,28.93h5.53a2.59,2.59,0,0,0,1.77-.73,2.57,2.57,0,0,0,.73-1.77,2.53,2.53,0,0,0-.73-1.77,2.59,2.59,0,0,0-1.77-.73H51.13a2.51,2.51,0,0,0-2.5,2.5,2.5,2.5,0,0,0,.74,1.77,2.57,2.57,0,0,0,1.76.73Z"/>
    <path class="cls-1" d="M51.75,21.56h9.83a2.5,2.5,0,0,0,0-5H51.75a2.5,2.5,0,0,0,0,5Z"/>
    <path class="cls-1" d="M70.13,19.06l0,17.21a2.53,2.53,0,0,0,3.17,2.41,33.12,33.12,0,0,1,12.2-1.8,2.5,2.5,0,0,0,0-5,37.69,37.69,0,0,0-13.53,2l3.16,2.42,0-17.21a2.55,2.55,0,0,0-2.5-2.5,2.52,2.52,0,0,0-2.5,2.5Z"/>
    <path class="cls-1" d="M75.1,30.16h7.37a2.5,2.5,0,0,0,0-5H75.1a2.5,2.5,0,0,0,0,5Z"/>
    <path class="cls-1" d="M71.41,21.56H83.09a2.5,2.5,0,0,0,0-5H71.41a2.5,2.5,0,0,0,0,5Z"/>
    <path class="cls-1" d="M116.23,8V36.26c0,3.22,5,3.22,5,0V8c0-3.22-5-3.23-5,0Z"/>
    <path class="cls-1" d="M104.69,15.79A62,62,0,0,1,125.51,8.4a2.52,2.52,0,0,0,1.75-3.07,2.56,2.56,0,0,0-3.08-1.75,65.9,65.9,0,0,0-22,7.89c-2.79,1.6-.27,5.93,2.53,4.32Z"/>
    <path class="cls-1" d="M126.67,16l0,17.12h5l-.21-3.84-.11-1.83-.06-1c0-.15,0-.3,0-.44,0-.73-.4-.27-1.18,1.38a7.47,7.47,0,0,0,1.63-.45l1.73-.47,3.79-1c3.1-.85,1.79-5.67-1.33-4.82l-4.42,1.21c-1.42.39-3.29.59-4.34,1.72-1.24,1.32-.83,3.27-.74,4.91l.26,4.67a2.56,2.56,0,0,0,2.5,2.5,2.52,2.52,0,0,0,2.5-2.5l0-17.12a2.5,2.5,0,0,0-5,0Z"/>
    <path class="cls-1" d="M138.35,14.14v27c0,3.22,5,3.22,5,0v-27c0-3.22-5-3.22-5,0Z"/>
    <path class="cls-1" d="M147.55,13.53l0,17.76a2.53,2.53,0,0,0,3.16,2.41l7.95-1.84A2.5,2.5,0,0,0,157.37,27l-7.94,1.84,3.16,2.42,0-17.76a2.5,2.5,0,0,0-5,0Z"/>
    <path class="cls-1" d="M153.14,23.4h6.76a2.5,2.5,0,0,0,0-5h-6.76a2.5,2.5,0,0,0,0,5Z"/>
    <path class="cls-1" d="M149.54,16.68l11-3.29a2.5,2.5,0,1,0-1.33-4.83l-11,3.3a2.5,2.5,0,1,0,1.33,4.82Z"/>
    <path class="cls-1" d="M183.18,3.16c0,6-1.63,11.85-2.82,17.73a103,103,0,0,0-2.05,18.61c-.05,3.22,4.95,3.22,5,0a97.06,97.06,0,0,1,2.07-18.22c1.25-6,2.77-12,2.8-18.12,0-3.22-5-3.22-5,0Z"/>
    <path class="cls-1" d="M186.65,5h13c.09,0,1,.06.66,0a3.07,3.07,0,0,1,.5.13.5.5,0,0,1-.26-.11.36.36,0,0,1-.2-.44c0,.31,0,.38,0,.23-.08,1.27-1.29,2.43-2.11,3.37a43.37,43.37,0,0,1-15.35,11.17,2.51,2.51,0,0,0-.9,3.42,2.57,2.57,0,0,0,3.42.9,47,47,0,0,0,14.66-10.12c2.08-2.11,4.68-4.66,5.14-7.72A4.87,4.87,0,0,0,203.15.77C201.77-.08,200.06,0,198.5,0H186.65c-3.22,0-3.22,5,0,5Z"/>
    <path class="cls-1" d="M206.25,13.72a183.48,183.48,0,0,1-3.62,18.43,2.5,2.5,0,1,0,4.82,1.33,183.48,183.48,0,0,0,3.62-18.43A2.59,2.59,0,0,0,209.32,12a2.51,2.51,0,0,0-3.07,1.75Z"/>
    <path class="cls-1" d="M209.44,17.48h5.14q.93.08-.24-.27l-.64-1.1a7.93,7.93,0,0,1,0,5.33,3.74,3.74,0,0,1-1.2,1.61,2.52,2.52,0,0,1-1.42.51,2.53,2.53,0,0,0-1.76,4.27q4.9,4.75,9.46,9.89a2.5,2.5,0,1,0,3.53-3.54q-4.53-5.12-9.46-9.89L211,28.55c4.83-.11,7.73-4.45,8-8.91.14-2.15.07-5.46-2-6.68-1.13-.67-2.58-.49-3.84-.49h-3.76c-3.22,0-3.22,5,0,5Z"/>
    <path class="cls-1" d="M227,17.12c-.09,2.25-.19,4.5-.28,6.75a14.18,14.18,0,0,0,.83,6.13c1.67,3.91,6.55,5.85,10,2.84,2.85-2.5,3.31-7,3.76-10.55.29-2.23.53-4.49-.67-6.52a24.4,24.4,0,0,0-4.29-4.62c-1-.93-1.89-2-3.29-2.11a3.93,3.93,0,0,0-3.64,1.83,17.89,17.89,0,0,0-2.65,6.52,2.5,2.5,0,0,0,4.82,1.33,17.36,17.36,0,0,1,.82-2.81,11.4,11.4,0,0,1,.49-1.07c.16-.33.62-.85.67-1.21-.29.55-.89.57-1.8,0l.5.47,1.09,1.06c.7.68,1.41,1.35,2.1,2.05a3.32,3.32,0,0,1,1.11,1.7,9.91,9.91,0,0,1-.14,2.37,33.32,33.32,0,0,1-1,5.43,5.66,5.66,0,0,1-.66,1.67,3,3,0,0,1-.84.9c.22-.07.19-.07-.1,0,.22,0,.16,0-.17,0,.33,0-.43-.11-.45-.12.14.06-.32-.24-.37-.28a2.31,2.31,0,0,1-.54-.67c-.79-1.39-.58-3.24-.52-4.78q.12-3.21.26-6.4a2.5,2.5,0,0,0-5,0Z"/>
    <path class="cls-1" d="M252.16,13c-2.8.89-4.39,3.26-5.27,5.94a36.6,36.6,0,0,0-1.5,8.94c-.19,3.2.74,6.24,3.38,8.19a8.25,8.25,0,0,0,7.53,1.2A2.56,2.56,0,0,0,258,34.2,2.51,2.51,0,0,0,255,32.46c-.21.07-.41.14-.62.19s-.57.08-.22.05a4.56,4.56,0,0,1-.64,0c-.15,0-.57-.09-.23,0-.21,0-.42-.1-.63-.16s-.54-.22-.24-.08a4.59,4.59,0,0,1-.57-.32c-.09-.05-.47-.34-.22-.14a2.67,2.67,0,0,1-1.08-1.7,8.9,8.9,0,0,1-.07-3.09,35.62,35.62,0,0,1,1.07-6.26,6.59,6.59,0,0,1,.88-2.14c0-.1.33-.48.13-.23a6.17,6.17,0,0,1,.43-.46c.13-.11.13-.11,0,0l.21-.14c.41-.25-.16,0,.34-.15A2.5,2.5,0,1,0,252.16,13Z"/>
    <path class="cls-1" d="M259.28,13.75c0,5,0,10,0,14.94,0,2.39.78,4.93,3.36,5.66a5.7,5.7,0,0,0,3.6-.31,16.72,16.72,0,0,0,1.65-.8,3.38,3.38,0,0,1,1-.4,2.5,2.5,0,0,0,0-5,7.87,7.87,0,0,0-3.24.94c-.31.16-.85.48-1,.55l-.36.13-.41.1.12,0s.19.08.24.11.14.25.21.31,0-.13-.08-.28,0,.23,0-.21c-.05-1,0-1.93,0-2.89V13.75a2.5,2.5,0,0,0-5,0Z"/>
    <path class="cls-1" d="M265.21,25.17,269.84,23a2.51,2.51,0,0,0-.6-4.57l-.67-.09a2.54,2.54,0,0,0-1.26.35l-4.62,2.13a2.51,2.51,0,0,0-1.15,1.5,2.55,2.55,0,0,0,.25,1.93,2.51,2.51,0,0,0,1.49,1.14l.67.09a2.43,2.43,0,0,0,1.26-.34Z"/>
    <path class="cls-1" d="M263.38,17.47a41.31,41.31,0,0,0,7.39-2.2,2.73,2.73,0,0,0,1.5-1.15,2.6,2.6,0,0,0,.25-1.93,2.56,2.56,0,0,0-1.15-1.49,2.43,2.43,0,0,0-1.93-.25,42.14,42.14,0,0,1-7.39,2.2,2.46,2.46,0,0,0-1.49,1.15,2.52,2.52,0,0,0-.25,1.92,2.56,2.56,0,0,0,3.07,1.75Z"/>
    <path class="cls-1" d="M283.61,10.7a34.14,34.14,0,0,1-4.11,8.13A2.52,2.52,0,0,0,281,22.5l5.14,1.22,2.34.56a11.35,11.35,0,0,1,2,.54l-.89-.9h0V22.6c-.15,1-1.25,2.08-1.85,2.93l-2.4,3.36-4.79,6.71a2.52,2.52,0,0,0,.9,3.42,2.55,2.55,0,0,0,3.42-.89l4.65-6.52,2.39-3.36a18.63,18.63,0,0,0,2.2-3.33,3.59,3.59,0,0,0-.38-3.77c-.9-1.07-2.19-1.28-3.48-1.58l-7.95-1.89,1.49,3.68A39.36,39.36,0,0,0,288.43,12a2.5,2.5,0,1,0-4.82-1.33Z"/>
    <path class="cls-1" d="M306.12,8.57a32.57,32.57,0,0,0-7.76,6.11,2.53,2.53,0,0,0,1.11,4.18l4.9,1.48,2.34.71,1.16.35c.16.05.5.28.36.12l-.64-1.11,0-.11.34-1.26a25.2,25.2,0,0,1-2.6,3.76l-3,4.25-5.91,8.28a2.5,2.5,0,1,0,4.32,2.53L311.2,23.1c.84-1.17,1.69-2.36,1.26-3.88a4.05,4.05,0,0,0-3-2.57c-2.87-.9-5.76-1.74-8.64-2.61l1.1,4.18a28,28,0,0,1,6.74-5.33c2.8-1.59.29-5.91-2.52-4.32Z"/>
  </g>
  <path class="cls-1" d="M330.09,9.13q-1.86,16.65-2.73,33.38c-.15,2.91,4.37,2.9,4.52,0q.87-16.72,2.74-33.38a2.29,2.29,0,0,0-2.27-2.26,2.32,2.32,0,0,0-2.26,2.26Z"/>
  <path class="cls-1" d="M319.32,34.67a105,105,0,0,0,7.15,15.45,2.54,2.54,0,0,0,4.32,0,72.8,72.8,0,0,1,12.52-13.89,2.5,2.5,0,0,0-3.54-3.53,77.54,77.54,0,0,0-13.3,14.89h4.32a96.11,96.11,0,0,1-6.65-14.25,2.58,2.58,0,0,0-3.08-1.74,2.51,2.51,0,0,0-1.74,3.07Z"/>
</svg>
