<svg id="Layer_1" data-name="Layer 1" xmlns="http://www.w3.org/2000/svg" xmlns:xlink="http://www.w3.org/1999/xlink" width="1920" height="1080" viewBox="0 0 1920 1080">
  <defs>
    <style>
      .cls-1 {
        fill: #efe1e1;
      }

      .cls-2 {
        fill: #ccc;
      }

      .cls-3 {
        fill: #c6c6c6;
      }

      .cls-26, .cls-4 {
        fill: #606060;
      }

      .cls-5 {
        fill: #7f7773;
      }

      .cls-6 {
        fill: #6b6b6a;
      }

      .cls-7 {
        fill: #68605d;
      }

      .cls-8 {
        fill: #a3a0a0;
      }

      .cls-9 {
        fill: #686868;
      }

      .cls-10 {
        fill: #7c7c7c;
      }

      .cls-11 {
        fill: #848383;
      }

      .cls-12 {
        fill: #6b6b6b;
      }

      .cls-13 {
        fill: #d6b7ae;
      }

      .cls-14 {
        fill: #c9a093;
      }

      .cls-15 {
        fill: #a5a5a5;
      }

      .cls-16 {
        fill: #f2eeeb;
      }

      .cls-17 {
        fill: #c4bfbb;
      }

      .cls-18 {
        fill: #d68585;
      }

      .cls-19 {
        fill: #d8a884;
      }

      .cls-20 {
        fill: #7dba74;
      }

      .cls-21 {
        fill: #baef7b;
      }

      .cls-22 {
        fill: #595959;
      }

      .cls-23 {
        fill: #232219;
      }

      .cls-24 {
        opacity: 0.6;
      }

      .cls-25 {
        fill: #fff;
      }

      .cls-26 {
        opacity: 0.2;
      }

      .cls-26, .cls-38 {
        isolation: isolate;
      }

      .cls-27 {
        fill: #eae3df;
      }

      .cls-28 {
        fill: #fddeb0;
      }

      .cls-29 {
        fill: #eba228;
      }

      .cls-30 {
        fill: #915234;
      }

      .cls-31, .cls-32, .cls-33 {
        fill: none;
        stroke-miterlimit: 10;
      }

      .cls-31 {
        stroke: #915334;
        stroke-width: 2.24px;
      }

      .cls-32 {
        stroke: #585657;
      }

      .cls-32, .cls-33 {
        stroke-width: 8.98px;
      }

      .cls-33 {
        stroke: #575757;
      }

      .cls-34 {
        fill: #dda3ca;
      }

      .cls-35 {
        fill: #ee7a68;
      }

      .cls-36 {
        fill: #f5cfe4;
      }

      .cls-37 {
        fill: #dadada;
      }

      .cls-38 {
        opacity: 0.4;
        fill: url(#linear-gradient);
      }

      .cls-39 {
        fill: #f7efed;
      }

      .cls-40 {
        fill: #666;
      }

      .cls-41 {
        fill: #af3c02;
      }

      .cls-42 {
        opacity: 0.22;
      }

      .cls-43 {
        fill: #474747;
      }
    </style>
    <linearGradient id="linear-gradient" x1="922.37" y1="1077" x2="922.37" y2="176" gradientTransform="matrix(1, 0, 0, -1, 0, 1080)" gradientUnits="userSpaceOnUse">
      <stop offset="0" stop-color="#ff0"/>
      <stop offset="0.71" stop-color="#fff" stop-opacity="0"/>
    </linearGradient>
  </defs>
  <g>
    <rect class="cls-1" x="3" width="1914" height="952"/>
    <rect class="cls-2" x="831.48" y="-0.18" width="13" height="1079"/>
    <rect class="cls-2" x="915.52" y="-0.18" width="13" height="1079"/>
    <rect class="cls-2" x="999.57" y="-0.18" width="13" height="1079"/>
    <g>
      <rect class="cls-2" x="75.05" y="-0.18" width="13" height="1079"/>
      <rect class="cls-2" x="159.1" y="-0.18" width="13" height="1079"/>
      <rect class="cls-2" x="243.14" y="-0.18" width="13" height="1079"/>
      <rect class="cls-2" x="327.19" y="-0.18" width="13" height="1079"/>
      <rect class="cls-2" x="411.24" y="-0.18" width="13" height="1079"/>
      <rect class="cls-2" x="495.29" y="-0.18" width="13" height="1079"/>
      <rect class="cls-2" x="663.38" y="-0.18" width="13" height="1079"/>
      <rect class="cls-2" x="579.33" y="-0.18" width="13" height="1079"/>
      <rect class="cls-2" x="747.43" y="-0.18" width="13" height="1079"/>
      <rect class="cls-2" x="952.97" y="-888.37" width="13" height="1916.01" transform="translate(888.49 1029) rotate(-89.92)"/>
      <rect class="cls-2" x="952.85" y="-804.33" width="13" height="1916.01" transform="translate(804.33 1112.8) rotate(-89.92)"/>
      <rect class="cls-2" x="952.74" y="-720.28" width="13" height="1916.01" transform="translate(720.17 1196.63) rotate(-89.92)"/>
      <rect class="cls-2" x="952.62" y="-636.23" width="13" height="1916.01" transform="translate(636 1280.45) rotate(-89.92)"/>
      <rect class="cls-2" x="952.5" y="-552.18" width="13" height="1916.01" transform="translate(551.84 1364.25) rotate(-89.92)"/>
      <rect class="cls-2" x="952.38" y="-468.13" width="13" height="1916.01" transform="translate(467.66 1448.07) rotate(-89.92)"/>
      <rect class="cls-2" x="952.27" y="-384.09" width="13" height="1916.01" transform="translate(383.51 1531.88) rotate(-89.92)"/>
      <rect class="cls-2" x="952.03" y="-215.99" width="13" height="1916.01" transform="translate(215.18 1699.5) rotate(-89.92)"/>
      <rect class="cls-2" x="952.15" y="-300.03" width="13" height="1916.01" transform="translate(299.34 1615.7) rotate(-89.92)"/>
    </g>
    <rect class="cls-2" x="1083.62" y="-0.18" width="13" height="1079"/>
    <rect class="cls-2" x="1167.67" y="-0.18" width="13" height="1079"/>
    <rect class="cls-2" x="1251.71" y="-0.18" width="13" height="1079"/>
    <rect class="cls-2" x="1419.81" y="-0.18" width="13" height="1079"/>
    <rect class="cls-2" x="1335.76" y="-0.18" width="13" height="1079"/>
    <rect class="cls-2" x="1503.86" y="-0.18" width="13" height="1079"/>
    <rect class="cls-2" x="1587.9" y="-0.18" width="13" height="1079"/>
    <rect class="cls-2" x="1756" y="-0.18" width="13" height="1079"/>
    <rect class="cls-2" x="1671.95" y="-0.18" width="13" height="1079"/>
    <rect class="cls-3" x="1836.95" y="1" width="13.05" height="1070.82"/>
  </g>
  <rect class="cls-4" x="951.56" y="-137.06" width="13" height="1926.24" transform="translate(130.67 1782.96) rotate(-89.92)"/>
  <rect class="cls-4" x="951.44" y="-53.01" width="13" height="1926.24" transform="translate(46.5 1866.78) rotate(-89.92)"/>
  <rect class="cls-4" x="951.32" y="31.04" width="13" height="1926.24" transform="translate(-37.67 1950.6) rotate(-89.92)"/>
  <rect class="cls-4" x="951.21" y="115.08" width="13" height="1926.24" transform="translate(-121.83 2034.41) rotate(-89.92)"/>
  <rect class="cls-5" y="812" width="1920" height="271"/>
  <path class="cls-6" d="M1489,812l-415,219c-9.1,5.25-125.81-38.92-128.71-44l-19.77-30c-2.91-5,2.15-13.46,11.25-18.71L1207.28,801c6.07,6.84-20.62,5.76-17.71,10.8Z"/>
  <rect class="cls-7" x="48.28" y="237" width="435" height="45.36"/>
  <rect class="cls-5" x="46.66" y="237" width="435.81" height="34.83"/>
  <g>
    <rect class="cls-8" x="80.19" y="256.03" width="12.15" height="205.75"/>
    <ellipse class="cls-8" cx="58.25" cy="474.31" rx="37.26" ry="34.16" transform="translate(-229.35 92.67) rotate(-30)"/>
    <ellipse class="cls-9" cx="54.91" cy="472.04" rx="31.95" ry="25" transform="translate(-275.48 130.46) rotate(-37.41)"/>
  </g>
  <g>
    <rect class="cls-8" x="277.48" y="255.63" width="16.2" height="85.03"/>
    <ellipse class="cls-8" cx="285.58" cy="425.03" rx="84.65" ry="87.97"/>
    <ellipse class="cls-10" cx="286.96" cy="425.03" rx="67.99" ry="70.66"/>
  </g>
  <g>
    <rect class="cls-8" x="432.83" y="255.63" width="12.3" height="64.54"/>
    <ellipse class="cls-8" cx="438.98" cy="384.22" rx="64.26" ry="66.78"/>
    <ellipse class="cls-11" cx="440.02" cy="384.22" rx="51.61" ry="53.64"/>
  </g>
  <g>
    <rect class="cls-8" x="156.75" y="255.63" width="12.15" height="205.75"/>
    <path class="cls-12" d="M176.4,436.66l17.67,30.61A15.08,15.08,0,0,1,181,489.89H145.67a15.08,15.08,0,0,1-13.07-22.62l17.67-30.61a15.09,15.09,0,0,1,26.13,0Z"/>
  </g>
  <g>
    <rect class="cls-7" x="1296" y="481.58" width="546.18" height="7.85"/>
    <polygon class="cls-7" points="1911.98 418.43 1842.18 489.43 1842.33 480.77 1913 409 1911.98 418.43"/>
    <polygon class="cls-5" points="1842.18 481.58 1296 481.58 1367.72 409 1913 409 1842.18 481.58"/>
  </g>
  <polygon class="cls-6" points="1786.18 884.58 1240 884.58 1311.72 812 1857 812 1786.18 884.58"/>
  <g>
    <path class="cls-13" d="M1486,415.63c0,24.51-24.2,44.37-54,44.37s-54-19.86-54-44.37S1402.29,383,1432.14,383,1486,391.13,1486,415.63Z"/>
    <path class="cls-14" d="M1477.28,407.38c0,8.6-18.43,14.66-44.57,14.66s-45.27-6.06-45.27-14.66,19.3-20.17,45.44-20.17S1477.28,398.77,1477.28,407.38Z"/>
  </g>
  <g>
    <rect class="cls-15" x="1517.53" y="350.72" width="77.47" height="103.82" rx="12"/>
    <path class="cls-16" d="M1529,327h54a12,12,0,0,1,12,12v20.68h-78V339A12,12,0,0,1,1529,327Z"/>
  </g>
  <g>
    <rect class="cls-17" x="1710.53" y="287.72" width="77.47" height="163.28" rx="5.5"/>
    <path class="cls-16" d="M1722,278h54a12,12,0,0,1,12,12v4h-78v-4A12,12,0,0,1,1722,278Z"/>
  </g>
  <g>
    <path class="cls-18" d="M1624.73,375.83h10a12,12,0,0,1,12,12V430a2,2,0,0,1-2,2h-30.1a2,2,0,0,1-2-2V387.83a12,12,0,0,1,12-12Z"/>
    <path class="cls-16" d="M1624.49,369H1635a12,12,0,0,1,12,12v6h-34.51v-6A12,12,0,0,1,1624.49,369Z"/>
  </g>
  <g>
    <path class="cls-19" d="M1647.73,405.83h10a12,12,0,0,1,12,12V460a2,2,0,0,1-2,2h-30.1a2,2,0,0,1-2-2V417.83a12,12,0,0,1,12-12Z"/>
    <path class="cls-16" d="M1647.49,399H1658a12,12,0,0,1,12,12v6h-34.51v-6A12,12,0,0,1,1647.49,399Z"/>
  </g>
  <path class="cls-6" d="M1488.2,888.64l-76,73.22a7.45,7.45,0,0,1-10.25,2.42,7.93,7.93,0,0,1-1-.78l-32.09-24.76c-3.46-3.08,1.86-7.79,5.49-10.67l82-64.88C1462.9,858,1492.6,881.54,1488.2,888.64Z"/>
  <g>
    <path class="cls-20" d="M1488.24,884.8c10.7,28.69-5.35,62.66-37.3,77.38s-68.2,4.83-83-21.95Z"/>
    <path class="cls-21" d="M1480.62,888.31c9,24.39-5.22,53.52-33.13,66.38s-59.32,4.75-72-18Z"/>
  </g>
  <g>
    <path class="cls-22" d="M311.17,899.61l228.34,91.51s-147.57-3.18-202.24-21.29-49.92-27.69-49.92-27.69l17.48-45"/>
    <rect class="cls-23" x="209.74" y="801.78" width="31.71" height="160.34" transform="translate(-677.55 767.66) rotate(-68.44)"/>
  </g>
  <g class="cls-24">
    <g>
      <path class="cls-20" d="M1487.66,885.52c10.63,28.72-5.5,62.65-37.49,77.29s-68.2,4.67-83-22.15Z"/>
      <path class="cls-21" d="M1480,889c9,24.41-5.35,53.51-33.29,66.3-15.53,7.11-32.13,7.73-46,3l-.69-.23c-10.75-3.87-19.79-11-25.26-20.89Z"/>
    </g>
    <polygon class="cls-25" points="1427.72 912.55 1447.17 955.05 1446.08 955.55 1426.78 913.38 1427.39 913.1 1427.53 912.86 1427.72 912.55"/>
    <polygon class="cls-25" points="1374.85 936.89 1480.23 888.41 1481.03 890.16 1375.52 938.35 1374.85 936.89 1374.85 936.89 1374.85 936.89"/>
    <polygon class="cls-25" points="1427.39 913.1 1427.06 913.66 1426.98 913.81 1400.77 958.29 1400.7 958.41 1400.08 958.06 1399.84 957.91 1425.47 914.39 1425.8 913.83 1427.39 913.1"/>
    <polygon class="cls-25" points="1478.87 922.38 1478.67 923.35 1428.41 913.04 1427.9 912.94 1427.79 912.92 1427.53 912.86 1427.72 912.55 1427.87 912.88 1429.33 912.22 1429.94 912.35 1478.87 922.38"/>
    <polygon class="cls-25" points="1441.33 906.72 1441.48 907.06 1414.2 919.55 1414.05 919.21 1427.39 913.1 1427.53 912.86 1427.72 912.55 1427.87 912.88 1441.33 906.72"/>
    <path class="cls-25" d="M1435.53,910.88c.46,1-2.62,3.41-6.89,5.36s-8.1,2.72-8.56,1.72,3.5-2.7,7.76-4.66S1435.07,909.88,1435.53,910.88Z"/>
  </g>
  <path class="cls-26" d="M14,1.09H1934c6.63,0,12,5.08,12,11.36V800.63c0,6.28-5.37,11.37-12,11.37H14c-6.63,0-12-5.09-12-11.37V12.45C2,6.17,7.37,1.09,14,1.09Z"/>
  <path class="cls-6" d="M1717.61,912.83,1612,959.49c-11.1,4.9-24,.26-28.69-10.32l-9.17-20.75c-4.68-10.58.58-23.25,11.69-28.16l106.57-47.09a12.43,12.43,0,0,1,15.72,4.62,9.52,9.52,0,0,0,2,2.38l21.86,18c2.69,2.21,19,1.49,18,4.86-2.38,8.3-25.21,24-30.09,28.36A8.88,8.88,0,0,1,1717.61,912.83Z"/>
  <g>
    <ellipse class="cls-20" cx="1577.31" cy="900.25" rx="68.49" ry="70.24" transform="translate(391.68 2275.98) rotate(-78.96)"/>
    <path class="cls-27" d="M1595.72,835.86c-.29,1.5-2.73,2-5.89,1.35s-6-1.48-5.67-3,3-1.91,6.19-1.29S1596,834.36,1595.72,835.86Z"/>
  </g>
  <g>
    <g>
      <ellipse class="cls-28" cx="1053.97" cy="766.91" rx="79.63" ry="126.32" transform="translate(-44.27 1468.97) rotate(-68.63)"/>
      <ellipse class="cls-29" cx="1053.97" cy="766.91" rx="72.48" ry="114.97" transform="translate(-44.27 1468.97) rotate(-68.63)"/>
      <ellipse class="cls-28" cx="1053.97" cy="766.91" rx="64.99" ry="103.08" transform="translate(-44.27 1468.97) rotate(-68.63)"/>
      <ellipse class="cls-29" cx="1053.97" cy="766.91" rx="58.37" ry="91" transform="translate(-44.27 1468.97) rotate(-68.63)"/>
      <ellipse class="cls-28" cx="1053.97" cy="766.91" rx="50" ry="82.38" transform="translate(-44.27 1468.97) rotate(-68.63)"/>
      <ellipse class="cls-29" cx="1053.97" cy="766.91" rx="42.13" ry="71.57" transform="translate(-44.27 1468.97) rotate(-68.63)"/>
      <ellipse class="cls-28" cx="1053.97" cy="766.91" rx="34.54" ry="58.68" transform="translate(-44.27 1468.97) rotate(-68.63)"/>
      <ellipse class="cls-29" cx="1053.97" cy="766.91" rx="27.16" ry="47.22" transform="translate(-44.27 1468.97) rotate(-68.63)"/>
      <ellipse class="cls-28" cx="1053.97" cy="766.91" rx="20.6" ry="35.82" transform="translate(-44.27 1468.97) rotate(-68.63)"/>
    </g>
    <g>
      <g>
        <path class="cls-30" d="M1164.05,471.73a3.31,3.31,0,0,1,.11-1.87c.9-2.38,4.38-3.5,7.79-2.49s5.46,3.77,4.58,6.15a3.41,3.41,0,0,1-.88,1.33c-1.45,1.43-4.19,2-6.89,1.16C1166.25,475.27,1164.43,473.54,1164.05,471.73Z"/>
        <path class="cls-30" d="M1175.65,474.85l-5.47,12.39h0l-10.57-4.58,4.47-10.93c.38,1.81,2.2,3.54,4.71,4.28C1171.46,476.82,1174.2,476.28,1175.65,474.85Z"/>
        <polygon class="cls-30" points="1170.18 487.24 1168.92 490.11 1168.88 490.09 1158.98 485.96 1158.33 485.69 1159.56 482.66 1159.58 482.66 1170.15 487.24 1170.18 487.24"/>
        <polygon class="cls-30" points="1168.92 490.11 1045.4 769.87 1042.72 768.76 1158.33 485.69 1158.98 485.96 1168.88 490.09 1168.92 490.11"/>
      </g>
      <g>
        <polyline class="cls-31" points="1159.56 482.66 1158.33 485.69 1042.72 768.76 1042.39 769.57"/>
        <polyline class="cls-31" points="1164.09 471.59 1164.05 471.73 1159.58 482.66"/>
        <polyline class="cls-31" points="1175.65 474.85 1170.18 487.24 1168.92 490.11 1045.4 769.87"/>
        <path class="cls-31" d="M1164.05,471.73a3.31,3.31,0,0,1,.11-1.87c.9-2.38,4.38-3.5,7.79-2.49s5.46,3.77,4.58,6.15a3.41,3.41,0,0,1-.88,1.33c-1.45,1.43-4.19,2-6.89,1.16C1166.25,475.27,1164.43,473.54,1164.05,471.73Z"/>
        <polyline class="cls-31" points="1159.56 482.66 1159.58 482.66 1170.15 487.24"/>
        <line class="cls-31" x1="1158.98" y1="485.96" x2="1168.88" y2="490.09"/>
      </g>
    </g>
    <g>
      <g>
        <path class="cls-30" d="M1208.22,488.29a3.24,3.24,0,0,1,.37-1.83c1.22-2.23,4.82-2.83,8.06-1.36s4.88,4.47,3.67,6.73a3.15,3.15,0,0,1-1,1.17h0c-1.64,1.22-4.43,1.35-7,.17S1208.34,490.14,1208.22,488.29Z"/>
        <path class="cls-30" d="M1219.27,493l-7.15,11.48h0l-9.83-6,6-10.2c.12,1.85,1.64,3.79,4,4.9C1214.84,494.37,1217.63,494.24,1219.27,493Z"/>
        <polygon class="cls-30" points="1212.12 504.5 1210.45 507.19 1210.43 507.17 1201.18 501.69 1200.6 501.36 1202.25 498.49 1202.27 498.49 1212.1 504.5 1212.12 504.5"/>
        <polygon class="cls-30" points="1210.45 507.19 1049.1 766.97 1046.61 765.51 1200.6 501.36 1201.18 501.69 1210.43 507.17 1210.45 507.19"/>
      </g>
      <g>
        <polyline class="cls-31" points="1202.25 498.49 1200.6 501.36 1046.61 765.51 1046.19 766.24"/>
        <polyline class="cls-31" points="1208.28 488.16 1208.22 488.29 1202.27 498.49"/>
        <polyline class="cls-31" points="1219.27 493.02 1212.12 504.5 1210.45 507.19 1049.1 766.97"/>
        <path class="cls-31" d="M1208.22,488.29a3.24,3.24,0,0,1,.37-1.83c1.22-2.23,4.82-2.83,8.06-1.36s4.88,4.47,3.67,6.73a3.15,3.15,0,0,1-1,1.17h0c-1.64,1.22-4.43,1.35-7,.17S1208.34,490.14,1208.22,488.29Z"/>
        <polyline class="cls-31" points="1202.25 498.49 1202.27 498.49 1212.1 504.5"/>
        <line class="cls-31" x1="1201.19" y1="501.69" x2="1210.43" y2="507.17"/>
      </g>
    </g>
    <g>
      <circle class="cls-28" cx="766.09" cy="750.05" r="119.35"/>
      <circle class="cls-29" cx="766.09" cy="750.05" r="108.63"/>
      <circle class="cls-28" cx="766.09" cy="750.05" r="97.4"/>
      <ellipse class="cls-29" cx="766.09" cy="750.05" rx="85.98" ry="87.48"/>
      <ellipse class="cls-28" cx="766.09" cy="750.05" rx="77.84" ry="74.95"/>
      <ellipse class="cls-29" cx="766.09" cy="750.05" rx="67.62" ry="63.15"/>
      <ellipse class="cls-28" cx="766.09" cy="750.05" rx="55.45" ry="51.78"/>
      <ellipse class="cls-29" cx="766.09" cy="750.05" rx="44.62" ry="40.7"/>
      <ellipse class="cls-28" cx="766.09" cy="750.05" rx="33.84" ry="30.87"/>
    </g>
    <g>
      <ellipse class="cls-28" cx="892.95" cy="764.5" rx="160.28" ry="105.66"/>
      <ellipse class="cls-29" cx="892.95" cy="764.5" rx="145.88" ry="96.17"/>
      <ellipse class="cls-28" cx="892.95" cy="764.5" rx="130.8" ry="86.22"/>
      <ellipse class="cls-29" cx="892.95" cy="764.5" rx="115.46" ry="77.44"/>
      <ellipse class="cls-28" cx="892.95" cy="764.5" rx="104.53" ry="66.35"/>
      <ellipse class="cls-29" cx="892.95" cy="764.5" rx="90.81" ry="55.9"/>
      <ellipse class="cls-28" cx="892.95" cy="764.5" rx="74.46" ry="45.84"/>
      <ellipse class="cls-29" cx="892.95" cy="764.5" rx="59.92" ry="36.03"/>
      <ellipse class="cls-28" cx="892.95" cy="764.5" rx="45.45" ry="27.33"/>
    </g>
    <path class="cls-25" d="M1223.74,732.33c-.3,4.69-.66,9.32-1.13,13.87-.49,5.23-1.1,10.4-1.82,15.47-.38,2.71-.78,5.43-1.21,8.1-.85,5.25-1.82,10.39-2.87,15.47-19.55,93.94-74.12,159.46-142.49,196.54v49.29H783.13V981.8c-68.38-37.1-122.94-102.6-142.52-196.56q-1.58-7.62-2.85-15.47c-.45-2.67-.85-5.39-1.23-8.1-.7-5.07-1.3-10.24-1.8-15.47-.47-4.55-.83-9.18-1.12-13.85h513Z"/>
    <polyline class="cls-32" points="870.91 845.28 838.68 811.67 804.64 845.59"/>
    <polyline class="cls-33" points="1047.94 845.28 1015.72 811.67 981.68 845.59"/>
    <path class="cls-34" d="M882.14,902.69c3.37,26.42,22.26,46.68,45.12,46.68s41.75-20.26,45.12-46.68Z"/>
    <path class="cls-35" d="M1226.18,730.25q-.75,13.82-1.84,27.23h-591q-1.05-13.4-1.82-27.23Z"/>
    <ellipse class="cls-36" cx="837.78" cy="874.79" rx="22.74" ry="14.45"/>
    <ellipse class="cls-36" cx="1014.81" cy="874.79" rx="22.74" ry="14.45"/>
    <rect class="cls-37" x="782.73" y="980.21" width="290.79" height="6.62"/>
  </g>
  <polygon class="cls-38" points="1423.31 895.49 1410.31 861.12 1339.26 673.26 1326.26 638.89 1255.21 451.04 1242.21 416.67 1171.17 228.84 1158.17 194.47 1087.12 6.62 1086.89 6 1086.82 5.82 1085.75 3 758.97 3 757.84 6 750.93 24.26 737.93 58.63 666.88 246.49 653.88 280.86 582.83 468.72 569.83 503.09 498.79 690.92 485.79 725.29 418.2 904 1426.53 904 1423.31 895.49"/>
  <rect class="cls-39" x="124" y="24" width="437" height="82" rx="12"/>
  <g>
    <path class="cls-40" d="M152.63,87.22V58.55h-3.81c-2.9,0-4.48-1.85-4.48-5.25v-.65c0-3.41,1.58-5.25,4.48-5.25h18.31c2.9,0,4.48,1.84,4.48,5.25v.65c0,3.4-1.58,5.25-4.48,5.25h-3.76V87.22c0,3.4-1.57,5.25-4.47,5.25h-1.8C154.21,92.47,152.63,90.62,152.63,87.22Z"/>
    <path class="cls-40" d="M176.64,87.22V52.65c0-3.41,1.58-5.25,4.48-5.25H183c2.9,0,4.47,1.84,4.47,5.25V87.22c0,3.4-1.57,5.25-4.47,5.25h-1.83C178.22,92.47,176.64,90.62,176.64,87.22Z"/>
    <path class="cls-40" d="M193.44,86.89l4.21-34.65c.39-3.2,2-4.84,4.76-4.84h5c2.67,0,4.26,1.52,5,4.55l6.16,27.33L224.68,52c.69-3,2.28-4.55,4.95-4.55h5c2.75,0,4.37,1.64,4.76,4.84l4.2,34.65c.44,3.58-1.1,5.58-4.14,5.58h-1.8c-2.76,0-4.35-1.71-4.72-4.93l-2.68-23.68L224.58,88c-.7,3-2.31,4.51-5,4.51H217.4c-2.66,0-4.27-1.52-5-4.51l-5.67-24.1-2.68,23.68c-.37,3.22-2,4.93-4.72,4.93h-1.8C194.55,92.47,193,90.47,193.44,86.89Z"/>
    <path class="cls-40" d="M249.6,87.22V52.65c0-3.41,1.58-5.25,4.47-5.25h16.87c2.89,0,4.47,1.84,4.47,5.25v.65c0,3.4-1.58,5.25-4.47,5.25h-10.6v6.68H270c2.9,0,4.47,1.63,4.47,4.56v.07c0,3-1.57,4.58-4.47,4.58h-9.64v6.92H271c2.89,0,4.47,1.85,4.47,5.25v.61c0,3.4-1.58,5.25-4.47,5.25H254.07C251.18,92.47,249.6,90.62,249.6,87.22Z"/>
    <path class="cls-40" d="M280.17,62.06c0-3.86,2.4-5.87,5.76-5.87a5.52,5.52,0,0,1,5.77,5.24c0,.21,0,.42,0,.63a5.49,5.49,0,0,1-5.11,5.86,4.7,4.7,0,0,1-.65,0C282.57,67.93,280.17,66,280.17,62.06Zm0,25.12c0-3.86,2.4-5.87,5.76-5.87a5.87,5.87,0,1,1,0,11.74C282.57,93.05,280.17,91.09,280.17,87.18Z"/>
  </g>
  <g>
    <rect class="cls-39" x="1448" y="26" width="437" height="82" rx="12"/>
    <g>
      <path class="cls-40" d="M1457.93,83.22V48.65c0-3.41,1.57-5.25,4.47-5.25h7.6c14.29,0,18.91,5.75,18.91,17.5s-4.62,17.2-18.78,17.2h-1.42v5.12c0,3.4-1.58,5.25-4.48,5.25h-1.83C1459.5,88.47,1457.93,86.62,1457.93,83.22Zm20-22.53c0-4.06-1.57-6.48-6-6.48h-3.18v13.1h3.18c4.42,0,6-2.5,6-6.62Z"/>
      <path class="cls-40" d="M1492.75,66c0-16.06,8.69-23,18.4-23,9.55,0,18.31,6.89,18.31,23,0,16.37-8.71,22.94-18.42,22.94S1492.75,82.37,1492.75,66Zm26,0c0-7.62-3.14-11.9-7.65-11.9s-7.72,4.26-7.72,11.9c0,8,3,12.06,7.69,12.06s7.65-4.15,7.65-12.06Z"/>
      <path class="cls-40" d="M1535.61,83.22V48.65c0-3.41,1.57-5.25,4.47-5.25h1.83c2.9,0,4.48,1.84,4.48,5.25V83.22c0,3.4-1.58,5.25-4.48,5.25h-1.83C1537.18,88.47,1535.61,86.62,1535.61,83.22Z"/>
      <path class="cls-40" d="M1554,83.22V48.65c0-3.41,1.58-5.25,4.47-5.25h2.33c2.45,0,4.08,1.1,5.38,3.59l11.16,21.39V48.65c0-3.41,1.58-5.25,4.47-5.25h1.8c2.9,0,4.47,1.84,4.47,5.25V83.22c0,3.4-1.57,5.25-4.47,5.25h-2.29c-2.45,0-4.08-1.1-5.38-3.59L1564.8,63.47V83.22c0,3.4-1.58,5.25-4.47,5.25h-1.84C1555.6,88.47,1554,86.62,1554,83.22Z"/>
      <path class="cls-40" d="M1601.43,83.22V54.55h-3.81c-2.9,0-4.48-1.85-4.48-5.25v-.65c0-3.41,1.58-5.25,4.48-5.25h18.31c2.9,0,4.47,1.84,4.47,5.25v.65c0,3.4-1.57,5.25-4.47,5.25h-3.76V83.22c0,3.4-1.57,5.25-4.47,5.25h-1.8C1603,88.47,1601.43,86.62,1601.43,83.22Z"/>
      <path class="cls-40" d="M1639,88.92c-6.31,0-12.24-2.86-14.79-7.66-1.67-3.12-.71-5.68,2.16-6.6l.85-.27c2.4-.77,3.87.16,5.33,1.93a8.06,8.06,0,0,0,6.36,3.24c2.92,0,4.73-1.47,4.73-3.84,0-6.82-19.72-2.81-19.72-19.24,0-8.17,5.93-13.49,14.55-13.49,6.41,0,11.7,2.36,14.13,6.8,2,3.58,1.12,6.17-2.1,6.94l-.87.21c-3.33.79-4.43-.94-6.09-2.55a6.39,6.39,0,0,0-4.65-2c-2.67,0-4.37,1.42-4.37,3.64,0,7.85,20,2.81,20,19.12,0,8.39-6.51,13.8-15.53,13.8Z"/>
      <path class="cls-40" d="M1658.45,58.06c0-3.86,2.4-5.87,5.76-5.87a5.52,5.52,0,0,1,5.77,5.24c0,.21,0,.42,0,.63a5.49,5.49,0,0,1-5.09,5.86,5,5,0,0,1-.67,0C1660.85,63.93,1658.45,62,1658.45,58.06Zm0,25.12c0-3.86,2.4-5.87,5.76-5.87a5.87,5.87,0,0,1,0,11.74C1660.85,89.05,1658.45,87.09,1658.45,83.18Z"/>
      <path class="cls-41" d="M1761.52,82.38l11.83-34.86c.94-2.77,2.55-4.12,5.12-4.12h.15c3.32,0,5.11,1.39,3.53,6.05L1770.41,84.3c-.94,2.77-2.56,4.13-5.14,4.13h-1C1761.43,88.43,1759.92,87.08,1761.52,82.38Z"/>
      <path class="cls-41" d="M1787.59,81.18c-1.59-3.07-.47-5.94,2.56-6.6l.88-.19a5.36,5.36,0,0,1,5.54,1.69c1.8,1.75,3.35,2.59,5.48,2.59,3.12,0,5.1-1.75,5.1-4.51s-1.76-4.22-5.57-4.22H1800c-2.59,0-3.62-1.4-3.62-4.1s1.13-4.11,3.49-4.11h1.56c3.52,0,5.42-1.44,5.42-4.1s-1.78-4.45-4.82-4.45a6.77,6.77,0,0,0-4.75,2.17,6.13,6.13,0,0,1-5.7,1.92l-.77-.09c-3-.38-4.16-3.39-2.62-6.53,2.41-4.9,8.31-7.64,14-7.64,9.1,0,15.24,4.93,15.24,12.87,0,4.85-2,8.63-6,10C1815.56,67.16,1818,71,1818,76c0,7.84-6.86,12.92-15.82,12.92C1796.29,89,1790.3,86.41,1787.59,81.18Z"/>
      <path class="cls-41" d="M1822.63,66c0-16.06,8-23,16.82-23s16.72,6.91,16.72,23c0,16.37-7.91,22.94-16.83,22.94S1822.63,82.37,1822.63,66Zm22.85,0c0-7.62-2.48-11.9-6.12-11.9s-6.14,4.28-6.14,11.9c0,8,2.42,12.06,6.12,12.06S1845.48,73.91,1845.48,66Z"/>
    </g>
  </g>
  <g>
    <g class="cls-42">
      <ellipse cx="68.67" cy="76.55" rx="32.53" ry="32.61"/>
      <rect x="61.58" y="35.03" width="12.13" height="15.47" rx="5"/>
      <rect x="62.13" y="103.56" width="12.13" height="15.47" rx="5"/>
      <rect x="96.86" y="69.3" width="15.44" height="12.16" rx="5"/>
      <rect x="26.3" y="69.3" width="15.44" height="12.16" rx="5"/>
      <path d="M88.71,96.13l1.47-1.58a5,5,0,0,1,7-.24l4,3.73a5,5,0,0,1,.24,7.07h0L100,106.69a5,5,0,0,1-7,.24l-4-3.73a5,5,0,0,1-.29-7.06Z"/>
      <path d="M37.13,47.85l1.47-1.58a5,5,0,0,1,7-.24l4,3.74a5,5,0,0,1,.24,7.06l-1.47,1.58a5,5,0,0,1-7,.24l-4-3.73a5,5,0,0,1-.24-7.07Z"/>
      <path d="M47.43,94.78,49,96.25a5,5,0,0,1,.22,7.07h0l-3.73,4a5,5,0,0,1-7.06.22l-1.56-1.47A5,5,0,0,1,36.65,99h0l3.73-4A5,5,0,0,1,47.43,94.78Z"/>
      <path d="M95.75,43.22l1.56,1.48a5,5,0,0,1,.22,7.06l-3.73,4a5,5,0,0,1-7,.22L85.18,54.5A5,5,0,0,1,85,47.43h0l3.74-4A5,5,0,0,1,95.75,43.22Z"/>
      <ellipse cx="69.3" cy="77.03" rx="18.33" ry="18.38"/>
    </g>
    <g>
      <g>
        <ellipse class="cls-43" cx="65.67" cy="73.55" rx="32.53" ry="32.61"/>
        <rect class="cls-43" x="58.58" y="32.03" width="12.13" height="15.47" rx="5"/>
        <rect class="cls-43" x="59.13" y="100.56" width="12.13" height="15.47" rx="5"/>
        <rect class="cls-43" x="93.86" y="66.3" width="15.44" height="12.16" rx="5"/>
        <rect class="cls-43" x="23.3" y="66.3" width="15.44" height="12.16" rx="5"/>
        <path class="cls-43" d="M85.71,93.13l1.47-1.58a5,5,0,0,1,7-.24l4,3.73a5,5,0,0,1,.24,7.07h0L97,103.69a5,5,0,0,1-7,.24l-4-3.73a5,5,0,0,1-.29-7.06Z"/>
        <path class="cls-43" d="M34.13,44.85l1.47-1.58a5,5,0,0,1,7-.24l4,3.74a5,5,0,0,1,.24,7.06l-1.47,1.58a5,5,0,0,1-7,.24l-4-3.73a5,5,0,0,1-.24-7.07Z"/>
        <path class="cls-43" d="M44.43,91.78,46,93.25a5,5,0,0,1,.22,7.07h0l-3.73,4a5,5,0,0,1-7.06.22l-1.56-1.47A5,5,0,0,1,33.65,96h0l3.73-4A5,5,0,0,1,44.43,91.78Z"/>
        <path class="cls-43" d="M92.75,40.22l1.56,1.48a5,5,0,0,1,.22,7.06l-3.73,4a5,5,0,0,1-7,.22L82.18,51.5A5,5,0,0,1,82,44.43h0l3.74-4A5,5,0,0,1,92.75,40.22Z"/>
      </g>
      <ellipse class="cls-8" cx="66.3" cy="74.03" rx="18.33" ry="18.38"/>
    </g>
  </g>
  <g>
    <g>
      <path class="cls-41" d="M1422.78,11.43a.87.87,0,0,1-1,.21,1,1,0,0,1-.67-.78.65.65,0,0,1,0-.34.83.83,0,0,1,1.06-.48l.06,0a1,1,0,0,1,.66,1.12A.53.53,0,0,1,1422.78,11.43Z"/>
      <path class="cls-41" d="M1422.78,11.43l-.78,2.25-1.53-.84.65-2a1,1,0,0,0,.67.78A.87.87,0,0,0,1422.78,11.43Z"/>
      <polygon class="cls-41" points="1422 13.68 1421.81 14.2 1421.81 14.2 1420.38 13.44 1420.29 13.4 1420.47 12.84 1422 13.68"/>
      <polygon class="cls-41" points="1421.81 14.2 1404.02 65.01 1403.64 64.81 1420.29 13.4 1420.38 13.44 1421.81 14.2 1421.81 14.2"/>
    </g>
    <g>
      <path class="cls-41" d="M1427.48,13.87a.62.62,0,0,1,0-.33.79.79,0,0,1,1.06-.32l.1.07a1,1,0,0,1,.53,1.22.51.51,0,0,1-.15.21h0a.87.87,0,0,1-1,0A1.15,1.15,0,0,1,1427.48,13.87Z"/>
      <path class="cls-41" d="M1429.07,14.73l-1,2.08h0l-1.42-1.09.86-1.85a1.13,1.13,0,0,0,.58.89A.86.86,0,0,0,1429.07,14.73Z"/>
      <polygon class="cls-41" points="1428.04 16.82 1427.8 17.3 1427.79 17.29 1426.46 16.3 1426.38 16.24 1426.62 15.72 1428.04 16.81 1428.04 16.82"/>
      <polygon class="cls-41" points="1427.8 17.3 1404.56 64.48 1404.2 64.22 1426.38 16.24 1426.46 16.3 1427.79 17.29 1427.8 17.3"/>
    </g>
    <path class="cls-41" d="M1421.24,50.74h-73.89c0,.85.09,1.69.16,2.52s.16,1.89.26,2.81a10.18,10.18,0,0,0,.18,1.47c.12,1,.25,1.89.41,2.81,2.82,17.07,10.68,29,20.52,35.7v9h41.93v-9c9.85-6.74,17.71-18.64,20.53-35.7.15-.92.29-1.86.41-2.81.06-.48.12-1,.17-1.47.11-.92.19-1.86.27-2.81s.12-1.67.16-2.52Z"/>
  </g>
  <g>
    <g>
      <path class="cls-41" d="M1322.78,11.43a.87.87,0,0,1-1,.21,1,1,0,0,1-.67-.78.65.65,0,0,1,0-.34.83.83,0,0,1,1.06-.48l.06,0a1,1,0,0,1,.66,1.12A.53.53,0,0,1,1322.78,11.43Z"/>
      <path class="cls-41" d="M1322.78,11.43l-.78,2.25-1.53-.84.65-2a1,1,0,0,0,.67.78A.87.87,0,0,0,1322.78,11.43Z"/>
      <polygon class="cls-41" points="1322 13.68 1321.81 14.2 1321.81 14.2 1320.38 13.44 1320.29 13.4 1320.47 12.84 1322 13.68"/>
      <polygon class="cls-41" points="1321.81 14.2 1304.02 65.01 1303.64 64.81 1320.29 13.4 1320.38 13.44 1321.81 14.2 1321.81 14.2"/>
    </g>
    <g>
      <path class="cls-41" d="M1327.48,13.87a.62.62,0,0,1,0-.33.79.79,0,0,1,1.06-.32l.1.07a1,1,0,0,1,.53,1.22.51.51,0,0,1-.15.21h0a.87.87,0,0,1-1,0A1.15,1.15,0,0,1,1327.48,13.87Z"/>
      <path class="cls-41" d="M1329.07,14.73l-1,2.08h0l-1.42-1.09.86-1.85a1.13,1.13,0,0,0,.58.89A.86.86,0,0,0,1329.07,14.73Z"/>
      <polygon class="cls-41" points="1328.04 16.82 1327.8 17.3 1327.79 17.29 1326.46 16.3 1326.38 16.24 1326.62 15.72 1328.04 16.81 1328.04 16.82"/>
      <polygon class="cls-41" points="1327.8 17.3 1304.56 64.48 1304.2 64.22 1326.38 16.24 1326.46 16.3 1327.79 17.29 1327.8 17.3"/>
    </g>
    <path class="cls-41" d="M1321.24,50.74h-73.89c0,.85.09,1.69.16,2.52s.16,1.89.26,2.81a10.18,10.18,0,0,0,.18,1.47c.12,1,.25,1.89.41,2.81,2.82,17.07,10.68,29,20.52,35.7v9h41.93v-9c9.85-6.74,17.71-18.64,20.53-35.7.15-.92.29-1.86.41-2.81.06-.48.12-1,.17-1.47.11-.92.19-1.86.27-2.81s.12-1.67.16-2.52Z"/>
  </g>
  <g>
    <g>
      <path class="cls-41" d="M1217.78,11.43a.87.87,0,0,1-1,.21,1,1,0,0,1-.67-.78.65.65,0,0,1,0-.34.83.83,0,0,1,1.06-.48l.06,0a1,1,0,0,1,.66,1.12A.53.53,0,0,1,1217.78,11.43Z"/>
      <path class="cls-41" d="M1217.78,11.43l-.78,2.25-1.53-.84.65-2a1,1,0,0,0,.67.78A.87.87,0,0,0,1217.78,11.43Z"/>
      <polygon class="cls-41" points="1217 13.68 1216.81 14.2 1216.81 14.2 1215.38 13.44 1215.29 13.4 1215.47 12.84 1217 13.68"/>
      <polygon class="cls-41" points="1216.81 14.2 1199.02 65.01 1198.64 64.81 1215.29 13.4 1215.38 13.44 1216.81 14.2 1216.81 14.2"/>
    </g>
    <g>
      <path class="cls-41" d="M1222.48,13.87a.62.62,0,0,1,0-.33.79.79,0,0,1,1.06-.32l.1.07a1,1,0,0,1,.53,1.22.51.51,0,0,1-.15.21h0a.87.87,0,0,1-1,0A1.15,1.15,0,0,1,1222.48,13.87Z"/>
      <path class="cls-41" d="M1224.07,14.73l-1,2.08h0l-1.42-1.09.86-1.85a1.13,1.13,0,0,0,.58.89A.86.86,0,0,0,1224.07,14.73Z"/>
      <polygon class="cls-41" points="1223.04 16.82 1222.8 17.3 1222.79 17.29 1221.46 16.3 1221.38 16.24 1221.62 15.72 1223.04 16.81 1223.04 16.82"/>
      <polygon class="cls-41" points="1222.8 17.3 1199.56 64.48 1199.2 64.22 1221.38 16.24 1221.46 16.3 1222.79 17.29 1222.8 17.3"/>
    </g>
    <path class="cls-41" d="M1216.24,50.74h-73.89c0,.85.09,1.69.16,2.52s.16,1.89.26,2.81a10.18,10.18,0,0,0,.18,1.47c.12,1,.25,1.89.41,2.81,2.82,17.07,10.68,29,20.52,35.7v9h41.93v-9c9.85-6.74,17.71-18.64,20.53-35.7.15-.92.29-1.86.41-2.81.06-.48.12-1,.17-1.47.11-.92.19-1.86.27-2.81s.12-1.67.16-2.52Z"/>
  </g>
</svg>
