<svg id="Layer_1" data-name="Layer 1" xmlns="http://www.w3.org/2000/svg" width="149.34mm" height="144.26mm" viewBox="0 0 423.33 408.93">
  <defs>
    <style>
      .cls-1 {
        fill: #dadada;
      }

      .cls-2 {
        fill: #ea8b87;
      }

      .cls-3 {
        fill: #edebec;
      }

      .cls-4 {
        fill: #925334;
      }

      .cls-11, .cls-12, .cls-5 {
        fill: none;
        stroke-miterlimit: 10;
      }

      .cls-5 {
        stroke: #925434;
        stroke-width: 0.99px;
      }

      .cls-6 {
        opacity: 0.6;
      }

      .cls-7 {
        fill: #f2c64c;
      }

      .cls-8 {
        fill: #eedba7;
      }

      .cls-9 {
        fill: #fff;
      }

      .cls-10 {
        fill: #9a9797;
      }

      .cls-11 {
        stroke: #595758;
      }

      .cls-11, .cls-12 {
        stroke-width: 3.09px;
      }

      .cls-12 {
        stroke: #585858;
      }

      .cls-13 {
        fill: #dda3ca;
      }

      .cls-14 {
        fill: #f5d0e4;
      }

      .cls-15 {
        fill: #f5d87c;
      }

      .cls-16 {
        fill: #f2d27e;
      }

      .cls-17 {
        fill: #efddac;
      }

      .cls-18 {
        fill: #efdfb7;
      }

      .cls-19 {
        fill: #eac660;
      }

      .cls-20 {
        fill: #e9dcbb;
      }

      .cls-21 {
        fill: #efc44c;
      }

      .cls-22 {
        fill: #ffe569;
      }

      .cls-23 {
        opacity: 0.9;
      }

      .cls-24 {
        fill: #d372ab;
      }

      .cls-25 {
        fill: #dec1ad;
      }

      .cls-26 {
        fill: #624737;
      }

      .cls-27 {
        fill: #7cba74;
      }

      .cls-28 {
        fill: #bdd894;
      }

      .cls-29 {
        opacity: 0.8;
      }

      .cls-30 {
        opacity: 0.5;
      }

      .cls-31 {
        fill: #b27666;
      }

      .cls-32 {
        fill: #c39a91;
      }

      .cls-33 {
        opacity: 0.3;
      }
    </style>
  </defs>
  <g>
    <circle class="cls-1" cx="218.62" cy="222.37" r="155.4"/>
    <g>
      <path class="cls-2" d="M55.14,173.59,33.8,161.44c-2.47-1.43-3.25-3.37-2.24-5.71l1.86-4.28c1-2.26,2.8-3.08,5.52-2.48l17.73,3.89-15-10.28c-2.3-1.58-3-3.47-2-5.73l1.85-4.28c1-2.33,3-3.1,5.7-2.27l23.45,7.26c3,1,4.1,2.94,3,5.5l-.68,1.58c-1,2.33-3,3.07-5.75,2.15l-13.94-4.66,12.56,8.79c2.24,1.6,2.89,3.49,1.92,5.75l-.75,1.73c-1,2.26-2.8,3.07-5.51,2.53l-15-3.15,12.94,7c2.54,1.37,3.37,3.33,2.36,5.67L61.19,172C60.08,174.57,57.91,175.15,55.14,173.59Z"/>
      <path class="cls-2" d="M88.5,112.88c3.21,1.05,4.15,3.4,2.4,5.83l-1,1.42c-1.41,2-3.29,2.43-5.87,1.38l-.35-.15-4.91,6.8.25.29c1.8,2.11,2,4,.54,6l-1.06,1.46c-1.75,2.43-4.25,2.24-6.28-.44L56.77,114.89c-1.62-2.13-1.71-4.07-.32-6l1.88-2.59c1.39-1.93,3.26-2.45,5.78-1.59l24.4,8.16Zm-12.14,5.53-9.13-3.7,6.4,7.49Z"/>
      <path class="cls-2" d="M91.57,110.67l-17-17.49C72.49,91,72.39,88.84,74.3,87l1.24-1.2c1.91-1.85,4.07-1.68,6.18.49l5.66,5.84-3.63-9.57a5.37,5.37,0,0,1,1.4-6.09L86.71,75c2.62-2.54,4.67-2.26,5.89,2.06l3.22,11.27,12.84,4.52c4.16,1.46,4.44,3.46,1.85,6l-1.64,1.6a5.26,5.26,0,0,1-6.14,1.09l-11-4.84,6.93,7.15c2.1,2.17,2.21,4.33.29,6.19l-1.23,1.2C95.84,113,93.67,112.84,91.57,110.67Z"/>
      <path class="cls-2" d="M112.81,90.89l-14-20c-1.73-2.48-1.49-4.63.69-6.16l9.82-6.9c2.19-1.53,4.29-1,6,1.45l.35.5c1.73,2.47,1.49,4.63-.69,6.16L110,69.54,111.67,72l4.46-3.13c2.18-1.53,4.15-1.21,5.6.84l0,0c1.47,2.1,1.1,4.06-1.08,5.59l-4.47,3.13,1.74,2.48L123,77.37c2.18-1.53,4.28-1,6,1.46l.32.45c1.74,2.48,1.5,4.63-.68,6.16l-9.83,6.9C116.66,93.87,114.55,93.36,112.81,90.89Z"/>
      <path class="cls-2" d="M164.32,62c2.74,2.73,2.66,4.83-.74,6.24l-1.71.71c-2.19.91-4,.36-5.74-1.65l-4.06-4.82-.54.23L150,63.3,152,68c1.16,2.79.46,4.84-2,5.86l-1.67.69c-2.46,1-4.41.06-5.56-2.73L133.39,49.3c-1.15-2.8-.45-4.85,2-5.87l7.16-3c9.62-4,13.6-.35,16.22,6a12,12,0,0,1,.06,10.08Zm-15.75-6.32c2.28-.94,2.05-2.76,1.36-4.43s-1.77-3-4-2.05l-1.52.62,2.69,6.49Z"/>
      <path class="cls-2" d="M194.85,54.65c1.71,2.9.87,5.29-2,6l-1.72.39c-2.36.54-4.08-.36-5.32-2.84l-.17-.34-8.17,1.87v.38c0,2.78-1.19,4.33-3.55,4.87l-1.76.4c-2.91.67-4.67-1.13-4.42-4.47l2-25.65c.19-2.66,1.39-4.18,3.71-4.71l3.12-.71c2.31-.53,4.06.31,5.39,2.63l12.95,22.22ZM182.08,50.8,177.66,42l-.13,9.85Z"/>
      <path class="cls-2" d="M197.35,54.15l2.28-24.44c.28-2.85,1.74-4.36,4.28-4.4l4.67-.07c2.46,0,3.95,1.28,4.53,4L216.87,47l3.21-17.86c.48-2.75,1.94-4.12,4.4-4.16l4.67-.08c2.54,0,4,1.43,4.41,4.26l3.05,24.36c.37,3.16-1,4.95-3.78,5l-1.72,0c-2.54,0-4-1.47-4.33-4.35l-1.5-14.62-2.84,15.06c-.53,2.71-2,4.08-4.44,4.12l-1.89,0c-2.46,0-4-1.29-4.57-4l-3.31-15-1,14.66C207,57.4,205.54,59,203,59l-1.72,0C198.49,59.07,197.07,57.32,197.35,54.15Z"/>
      <path class="cls-2" d="M240.57,55.12l4.38-24c.55-3,2.25-4.32,4.87-3.84l11.81,2.16c2.63.48,3.74,2.34,3.2,5.31l-.11.59c-.54,3-2.25,4.32-4.87,3.84l-6.09-1.11L253.23,41l5.36,1c2.62.47,3.78,2.11,3.33,4.57v.05c-.46,2.52-2.12,3.63-4.74,3.15l-5.36-1-.55,3,6.09,1.11c2.62.48,3.74,2.34,3.2,5.31l-.1.55c-.55,3-2.25,4.31-4.87,3.83l-11.82-2.15C241.14,60,240,58.09,240.57,55.12Z"/>
      <path class="cls-2" d="M264.77,59.66l8.35-22.89c1-2.84,2.94-3.88,5.44-3l2,.72c2.12.77,3.21,2.21,3.46,4.73l1.44,13.64,3.75-10.27c1-2.84,2.94-3.88,5.44-3l1.62.59c2.5.91,3.29,2.93,2.25,5.77l-8.35,22.89c-1,2.84-2.94,3.88-5.44,3l-2-.72c-2.12-.77-3.21-2.21-3.46-4.73l-1.42-13.58-3.73,10.22c-1,2.84-2.94,3.88-5.44,3L267,65.43C264.52,64.52,263.73,62.5,264.77,59.66Z"/>
      <path class="cls-2" d="M304.36,76.35l13.88-20c1.72-2.49,3.83-3,6-1.49l1.45,1c2.19,1.52,2.44,3.67.72,6.16l-4.11,5.92,4.79,3.31,4.1-5.92c1.73-2.48,3.83-3,6-1.49l1.45,1c2.19,1.52,2.44,3.68.72,6.16L325.52,91c-1.72,2.48-3.83,3-6,1.49l-1.45-1c-2.19-1.52-2.44-3.67-.72-6.15l4.14-6-4.79-3.31-4.13,6c-1.72,2.49-3.83,3-6,1.49l-1.45-1C302.89,81,302.64,78.84,304.36,76.35Z"/>
      <path class="cls-2" d="M348.36,112.61c-1.57,3-4,3.52-6.14,1.38L341,112.74c-1.7-1.73-1.84-3.66-.37-6l.2-.32-5.88-6-.33.2c-2.38,1.42-4.31,1.25-6-.48l-1.26-1.28c-2.1-2.14-1.49-4.57,1.49-6.12L351.71,81c2.36-1.24,4.29-1,6,.69L359.91,84c1.66,1.7,1.86,3.62.59,6l-12.14,22.67ZM345,99.72l5.18-8.38-8.46,5Z"/>
      <path class="cls-2" d="M350,116l20.2-13.62c2.51-1.69,4.66-1.41,6.15.8l3.25,4.83c6.51,9.65,4.29,15.09-3,20s-12.86,4.71-19.3-4.83l0-.07-1.74,1.17c-2.5,1.69-4.66,1.41-6.14-.8l-1-1.46C346.92,119.82,347.47,117.72,350,116Zm16.15,3.25c1.37,2,3.34,1.3,5,.21s2.93-2.57,1.55-4.61l-1-1.46-6.52,4.4Z"/>
      <path class="cls-2" d="M365.33,139.64l22.32-9.78c2.76-1.22,4.83-.56,5.9,1.88l2.34,5.33c4.68,10.66,1.52,15.62-6.48,19.13s-13.5,2.34-18.13-8.2l0-.08-1.91.84c-2.77,1.22-4.84.56-5.91-1.88l-.71-1.62C361.65,142.82,362.56,140.86,365.33,139.64Zm15.32,6.08c1,2.26,3.06,1.89,4.84,1.1s3.34-2,2.35-4.25l-.71-1.61-7.19,3.15Z"/>
      <path class="cls-2" d="M377.35,171.58l4.2-1,17-12.62c2.84-2.08,5.3-1.41,6,1.65l.5,2.07c.56,2.27-.22,4-2.45,5.45L394,172.58l10.19.94c2.6.26,4.13,1.44,4.68,3.71l.53,2.19c.75,3.07-1.16,4.84-4.61,4.25l-20.9-3.48-3.93,1c-2.94.72-4.86-.29-5.49-2.88l-.41-1.67C373.44,174,374.64,172.24,377.35,171.58Z"/>
    </g>
    <circle class="cls-3" cx="218.62" cy="222.37" r="141.93"/>
    <g>
      <g>
        <g>
          <path class="cls-4" d="M308.18,116.26a1.3,1.3,0,0,1,.05-.78c.4-1,2-1.47,3.58-1S314.36,116,314,117a1.3,1.3,0,0,1-.4.54h0a3.52,3.52,0,0,1-3.18.49A2.88,2.88,0,0,1,308.18,116.26Z"/>
          <path class="cls-4" d="M313.55,117.56l-2.49,5.21-4.9-1.91,2-4.6a2.88,2.88,0,0,0,2.19,1.79A3.52,3.52,0,0,0,313.55,117.56Z"/>
          <polygon class="cls-4" points="311.06 122.77 310.48 123.99 310.47 123.98 305.88 122.26 305.59 122.15 306.15 120.86 306.16 120.86 311.06 122.77"/>
          <polygon class="cls-4" points="310.48 123.99 254.36 241.74 253.12 241.28 305.59 122.15 305.88 122.26 310.47 123.98 310.48 123.99"/>
        </g>
        <g>
          <polyline class="cls-5" points="306.15 120.86 305.59 122.15 253.12 241.28 252.98 241.61"/>
          <polyline class="cls-5" points="308.2 116.2 308.19 116.26 306.16 120.86"/>
          <polyline class="cls-5" points="313.55 117.56 311.06 122.77 310.48 123.99 254.36 241.74"/>
          <path class="cls-5" d="M308.18,116.26a1.3,1.3,0,0,1,.05-.78c.4-1,2-1.47,3.58-1S314.36,116,314,117a1.3,1.3,0,0,1-.4.54h0a3.52,3.52,0,0,1-3.18.49A2.88,2.88,0,0,1,308.18,116.26Z"/>
          <polyline class="cls-5" points="306.15 120.86 306.16 120.86 311.06 122.77"/>
          <line class="cls-5" x1="305.88" y1="122.26" x2="310.47" y2="123.98"/>
        </g>
      </g>
      <g>
        <g>
          <path class="cls-4" d="M328.66,123.15a1.19,1.19,0,0,1,.17-.75c.55-1,2.21-1.2,3.71-.59s2.27,1.88,1.72,2.83a1.38,1.38,0,0,1-.49.5,3.61,3.61,0,0,1-3.22.09A2.77,2.77,0,0,1,328.66,123.15Z"/>
          <path class="cls-4" d="M333.77,125.14,330.52,130h0l-4.57-2.52,2.72-4.31a2.77,2.77,0,0,0,1.89,2.08A3.61,3.61,0,0,0,333.77,125.14Z"/>
          <polygon class="cls-4" points="330.52 129.98 329.75 131.1 329.75 131.09 325.46 128.81 325.18 128.66 325.94 127.46 330.51 129.98 330.52 129.98"/>
          <polygon class="cls-4" points="329.75 131.1 256.08 240.51 254.91 239.9 325.18 128.66 325.46 128.81 329.75 131.09 329.75 131.1"/>
        </g>
        <g>
          <polyline class="cls-5" points="328.68 123.12 328.66 123.15 325.94 127.46 325.18 128.66 254.91 239.9 254.72 240.21"/>
          <polyline class="cls-5" points="333.78 125.13 333.77 125.14 330.52 129.98 329.75 131.1 256.08 240.51"/>
          <path class="cls-5" d="M328.66,123.15a1.19,1.19,0,0,1,.17-.75c.55-1,2.21-1.2,3.71-.59s2.27,1.88,1.72,2.83a1.38,1.38,0,0,1-.49.5,3.61,3.61,0,0,1-3.22.09A2.77,2.77,0,0,1,328.66,123.15Z"/>
          <polyline class="cls-5" points="325.93 127.46 325.94 127.46 330.51 129.98"/>
          <line class="cls-5" x1="325.46" y1="128.81" x2="329.75" y2="131.09"/>
        </g>
      </g>
      <g class="cls-6">
        <path class="cls-7" d="M245.39,184l11.84-2.66c2.57,2.35,5,4.78,5.36,7.67s-1.71,6.34-7.17,9.46a50.37,50.37,0,0,1-22.08,5.72c-7.09,0-10.64-2.31-12.73-4.71s-3.44-5.11-8.28-6.54c-6.81-2-20.31-.62-29.88,3.05a11.22,11.22,0,0,0-2.5,1.2,2.14,2.14,0,0,0-.94,1.52C177.28,208.29,195.24,214,218.4,214c2.2,0,4.68,0,5.38.75,1.35,1.4-4.68,3.48-9.31,4.56-1.67-2.34-8.91-2.62-14.87-3.19-13.65-1.32-23.31-5.23-26.53-10.73-2.45-4.2.29-10.37,11.94-14.41,7.23-2.5,15.93-3.45,23.22-3.5,13.93-.09,24.7,2.75,28.42,7.51,1,1.31,1.61,2.8,3.94,3.67s7.21.89,10.85-.51a9.86,9.86,0,0,0,3.3-2c2.73-2.6,1.41-4.91-1-6.69s-5.79-3.24-7.32-5.27"/>
      </g>
      <g class="cls-6">
        <path class="cls-8" d="M182.77,214.14c1.4-.68-.1-1.56-2.15-1.5a11.79,11.79,0,0,0-5.3,1.44c-3.82,2.16-2.42,4.94,2.5,6s12.43.37,17.77-1.32,8.48-4.26,8.81-6.59c.21-1.49-.85-3-4.06-3.64a27.84,27.84,0,0,0-5.92-.3c-8.6.28-17,2.35-25.55,3.74a25,25,0,0,1-7.55.41,5,5,0,0,1-2.69-1.26c-3.72-3.54,3-8.71,13.4-11.16,10.9-2.58,24.24-2.53,34.37-5.61a5.69,5.69,0,0,0,1.95-.85c.9-.86-1.36-1.41-3.33-1.68-7.63,1.88-15.57,3.54-23.68,4.94-3.84.67-7.73,1.28-11.42,2.1-5.88,1.3-11.26,3.19-14.46,5.43s-4,4.85-1.29,6.69,9.07,2.71,15.28,1.84c3-.41,5.7-1.16,8.52-1.79a58.76,58.76,0,0,1,11.73-1.5c3.91-.05,7.59.55,9.13,1.76s.86,2.58-.33,3.95a11.08,11.08,0,0,1-6.14,3.32,24,24,0,0,1-10.92-.29c-1.8-.5-3.3-1.22-3.26-2.15s2.19-2.05,4.72-2.19"/>
      </g>
      <path class="cls-9" d="M318,204.32c-.09,1.88-.2,3.73-.36,5.56-.15,2.09-.35,4.16-.59,6.19-.12,1.09-.26,2.18-.4,3.25q-.42,3.15-.95,6.19c-6.52,37.64-25.16,64-48.62,78.94l.11,19.73L167,324.73,166.89,305c-23.62-14.72-42.54-40.83-49.49-78.41q-.56-3-1-6.18c-.16-1.07-.31-2.16-.44-3.24-.25-2-.47-4.1-.66-6.19-.17-1.82-.3-3.67-.41-5.54l5.51,0,171.06-.94Z"/>
      <path class="cls-10" d="M318.2,203.43c-.36,15.78-46.19,22.11-102.5,20.83s-101.44-7.83-101.08-23.61,45.87-26.23,102.19-25S318.56,187.65,318.2,203.43Z"/>
      <polyline class="cls-11" points="196.86 260.62 185.71 249.11 174.05 260.85"/>
      <polyline class="cls-12" points="257.8 260.28 246.64 248.78 234.99 260.51"/>
      <path class="cls-13" d="M205,280.33a3.31,3.31,0,0,0-3.14,4.37c2.39,6.86,8,11.67,14.58,11.64s12.14-4.91,14.46-11.8a3.31,3.31,0,0,0-3.18-4.33Z"/>
      <ellipse class="cls-14" cx="185.51" cy="270.84" rx="7.83" ry="4.97" transform="translate(-1.48 1.02) rotate(-0.31)"/>
      <ellipse class="cls-14" cx="246.45" cy="270.5" rx="7.83" ry="4.97" transform="translate(-1.48 1.36) rotate(-0.31)"/>
      <rect class="cls-3" x="166.77" y="306.95" width="100.09" height="2.28" transform="translate(-1.69 1.2) rotate(-0.31)"/>
      <path class="cls-15" d="M186.69,213.87l-.56,5.44A105.69,105.69,0,0,1,168,220c-6-.46-11.89-2-15.45-4.9s-4.18-7.27-.51-10.29,10-3.92,15.82-4.29,12-.37,17.28-2.08c7.43-2.4,11.4-8.25,8.79-13a3.21,3.21,0,0,0-1.19-1.28,7.87,7.87,0,0,0-2.58-.7c-18.47-2.68-38.9,3.57-50.49,13.12a7.39,7.39,0,0,1-4.18,2.07c-3.5.27-4.67-2.64-4.54-4.78,5.54-.21,9.7-3.14,13.83-5.48,9.45-5.37,22.14-8.56,34.83-8.76,9.66-.15,20.71,2.25,23,7.89,1.43,3.49-1,7.28-4.53,10.3-6.76,5.77-17.85,9.63-29.28,10.2-3.15.15-6.42.09-9.35.87s-5.38,2.79-4.37,4.59a4.88,4.88,0,0,0,2.39,1.77c3.88,1.66,9.17,1.59,13.94,1s9.41-1.73,14.25-1.94"/>
      <path class="cls-15" d="M257.93,214.28l-.55,5.44a105.77,105.77,0,0,1-18.12.64c-6-.46-11.89-2-15.44-4.9s-4.19-7.27-.51-10.29,9.95-3.92,15.82-4.29,12-.37,17.28-2.08c7.43-2.4,11.39-8.25,8.78-13a3.11,3.11,0,0,0-1.18-1.28,7.87,7.87,0,0,0-2.58-.7c-18.47-2.68-38.9,3.57-50.5,13.12a7.39,7.39,0,0,1-4.18,2.07c-3.49.27-4.66-2.64-4.53-4.78,5.53-.21,9.7-3.14,13.83-5.48,9.45-5.37,22.14-8.56,34.82-8.76,9.66-.15,20.72,2.25,23,7.89,1.43,3.49-1,7.28-4.53,10.3-6.77,5.77-17.85,9.63-29.29,10.2-3.15.15-6.42.09-9.35.87s-5.37,2.8-4.37,4.59a5,5,0,0,0,2.39,1.77c3.88,1.66,9.18,1.59,13.94,1s9.42-1.73,14.25-1.94"/>
      <path class="cls-7" d="M174.76,226.25l-10.4,4.53c-3.53-2-7-4.17-8.56-7.1s-1.08-6.79,2.9-10.83,11.92-8.15,19.06-9.24c6.92-1.06,11.39.78,14.47,2.93s5.57,4.76,10.91,5.5c7.51,1,20.09-2.42,27.84-7.65a8.07,8.07,0,0,0,1.92-1.62,1.89,1.89,0,0,0,.26-1.71c-2.48-10.17-22.48-13.34-45.09-9.86-2.15.32-4.58.69-5.58,0-1.92-1.24,3.07-4.29,7.11-6.11,2.65,2.16,9.83,1.35,15.89,1.05,13.89-.71,25,1.87,30.55,7.06,4.21,3.95,4.21,10.73-5.41,16.65-6,3.67-14,6-21.14,7.12-13.55,2.2-25.29.89-31-3.45-1.57-1.2-2.77-2.64-5.43-3.2a15.83,15.83,0,0,0-10.37,2.17,6.8,6.8,0,0,0-2.35,2.57c-1.53,3.1.75,5.28,3.85,6.75s7.06,2.47,9.43,4.33"/>
      <path class="cls-8" d="M211.8,198.94c-1.06.92.77,1.6,2.76,1.23a8.94,8.94,0,0,0,4.54-2.28c2.79-2.82.21-5.46-5-5.78a34.05,34.05,0,0,0-16.76,4c-4.47,2.56-6.43,5.67-5.74,8.13.44,1.56,2.14,3,5.53,3.13a25.38,25.38,0,0,0,5.91-.58c8.27-1.59,15.61-5,23.31-7.71a21.6,21.6,0,0,1,7.19-1.56,6.23,6.23,0,0,1,3.17.89c5.17,3.09.85,9.43-8.23,13.53-9.52,4.31-22.55,6.27-31.1,11a4,4,0,0,0-1.54,1.17c-.51,1,1.94,1.25,4,1.24,6.63-3.1,13.65-6,21-8.68,3.46-1.26,7-2.48,10.24-3.88,5.17-2.24,9.6-5,11.75-7.79s1.78-5.6-1.64-7.09-10-1.43-15.71.4c-2.73.88-5.06,2.07-7.54,3.14a47.58,47.58,0,0,1-10.79,3.31c-3.79.64-7.65.59-9.67-.43-1.86-.93-2-2.53-1.39-4.12a7.71,7.71,0,0,1,4.54-4.36,22.29,22.29,0,0,1,10.79-1.34c2,.24,3.75.76,4.11,1.72s-1.25,2.45-3.66,3"/>
      <path class="cls-16" d="M211.14,206.6c-1.79-.14-2,1.19-.69,2.09a10.72,10.72,0,0,0,5.22,1.39c5.29.17,8.15-2.51,6.47-5.52s-7.21-6-12.81-7.19-11-.79-14.33.77c-2.13,1-3.52,2.59-2.37,4.52a10.56,10.56,0,0,0,3.26,2.94c5.73,3.75,13.75,6.11,20.9,9,2.14.87,4.42,1.93,5.23,3.18a1.89,1.89,0,0,1,0,2.15c-2.45,4.3-13.57,5-23.33,2-10.23-3.12-18.44-9.29-28.86-11.69a7.26,7.26,0,0,0-2.37-.27c-1.71.2-1,1.65-.19,2.75,7.27,2.13,14.43,4.57,21.35,7.27,3.27,1.27,6.51,2.62,9.91,3.71a49.87,49.87,0,0,0,16.28,2.67c5-.17,9-1.72,9.79-4.29s-2-6.16-7-8.38c-2.41-1.06-5.11-1.76-7.7-2.6a35.5,35.5,0,0,1-9.3-4.29c-2.49-1.76-4-3.89-3.31-5.48s2.94-2.28,5.53-2.74a17.6,17.6,0,0,1,8.27.39c3.49,1.11,5.68,3.35,6.39,5.24.44,1.19.41,2.4-.87,3.06a7.25,7.25,0,0,1-5.88-.56"/>
      <path class="cls-17" d="M189,198.86c1.71.7,4.31-.46,4.42-1.74s-1.48-2.35-3.29-3c-5.48-1.86-13.3-.27-16.74,3.08s-2.6,7.89,1.4,10.82,10.65,4.25,17,3.87c4.08-.25,8.4-1.29,10.52-3.46a5.68,5.68,0,0,0,1.6-3.8c.3-5.33-4.34-10.11-7.08-15.1-.82-1.49-1.45-3.22-.16-4.64a9,9,0,0,1,3.79-2c10.23-3.23,23.6-.31,29.05,5.6,5.72,6.2,3.89,14.59,11.07,20.17a4.48,4.48,0,0,0,2.11,1c2.24.35,4.05-1.21,5.05-2.51a74.11,74.11,0,0,1-10.62-13.63,46.76,46.76,0,0,0-4.32-6.64,25.11,25.11,0,0,0-13.13-7.71c-5.77-1.44-12.85-1.27-18.24.87s-8.62,6.39-7,10.07c.76,1.76,2.5,3.28,3.86,4.89,1.81,2.14,3,4.55,2.64,7s-2.46,4.91-6,6.18a25.21,25.21,0,0,1-10.85.79c-3.33-.37-6.8-1.22-8.37-3-1.87-2.15-.35-4.94,2.19-6.93a12,12,0,0,1,6.33-2.59c2.56-.2,5.38.86,5.43,2.41"/>
      <path class="cls-18" d="M196.09,179.4a12.64,12.64,0,0,0-8-3.77c-3.73-.38-8.88.79-11.56,3.14-2.36,2.07-2.23,4.35-2.1,6.41a10,10,0,0,1-1.15,6.25,13.15,13.15,0,0,1-7.77,5.34c-5,1.29-9-.26-13.47-.64-8-.67-18.44,2.94-24.29,7.89s-7.28,10.81-4.77,15.16a7.5,7.5,0,0,0,6.53,3.72c2,.1,4.26-.31,6.21-.17,2.58.2,4.32,1.44,4.27,3.06a20.13,20.13,0,0,0,5-2.78c-5.21-2.48-14.26-2.22-17.91-5.57-2.83-2.6-1.4-6.91,2.62-10.4s10.22-6.16,16.44-7.77a27.32,27.32,0,0,1,6.17-1c3.84-.05,6.65,1.39,10.56,1.19a26.71,26.71,0,0,0,10-3.08c2.36-1.17,4.7-2.55,5.75-4.14a6.18,6.18,0,0,0,.79-3.72,21.07,21.07,0,0,1,.82-5.41,4.73,4.73,0,0,1,1.6-2.65,10.27,10.27,0,0,1,7.11-1.67A11.74,11.74,0,0,1,194,181c1.38-.37,2.48-1.37,2.32-2.12"/>
      <path class="cls-19" d="M167.1,203.72c-1.28,2.43-2.57,4.93-2.32,7.44s2.38,5.07,6.21,6a20.27,20.27,0,0,0,6.83.13c9-1.1,16.88-5.49,19.49-10.85s-.17-11.44-6.88-15a29.15,29.15,0,0,0-13.69-3.16c-7.11.08-13.7,2.64-19,5.64-9.76,5.49-17,13.64-14.11,21.29a7.44,7.44,0,0,0,8.08,4.34c-4.06-3.25-5.54-7.66-3.94-11.74a15.76,15.76,0,0,1,2.61-4.18,30.77,30.77,0,0,1,16.53-9.84c7.3-1.76,16.24-1.1,21.42,2.27,4.2,2.74,5.41,7,3,10.62s-8.36,6.24-14.64,6.57c-3.81.2-8.4-.93-8.58-3.25-.08-1,.66-1.9,1.23-2.82s1-2,.28-2.83a3.4,3.4,0,0,0-3.92-.41"/>
      <path class="cls-20" d="M152.62,199.75c-1.28,2.42-2.57,4.92-2.32,7.43s2.38,5.07,6.2,5.95a20.33,20.33,0,0,0,6.84.14c9-1.1,16.87-5.49,19.49-10.86s-.17-11.43-6.88-15a29,29,0,0,0-13.69-3.16c-7.12.08-13.7,2.64-19,5.63-9.77,5.49-17,13.64-14.11,21.3a7.45,7.45,0,0,0,8.07,4.34c-4.05-3.25-5.53-7.67-3.93-11.75a15.67,15.67,0,0,1,2.6-4.17,30.84,30.84,0,0,1,16.53-9.85c7.3-1.75,16.25-1.09,21.43,2.28,4.2,2.73,5.41,7,3,10.62s-8.37,6.24-14.64,6.57c-3.82.19-8.4-.94-8.59-3.25-.07-1,.66-1.9,1.23-2.82s1-2,.28-2.84a3.41,3.41,0,0,0-3.92-.4"/>
      <path class="cls-15" d="M242.65,192.24l2.74-5.23A99.68,99.68,0,0,1,263,189.09c5.55,1.34,10.6,3.74,12.84,7.11s1.07,7.74-3.68,10.15-11.14,2.35-16.92,1.83-11.67-1.43-17.42-.55c-8.1,1.24-14.27,6.38-13.68,11.38a2.25,2.25,0,0,0,.62,1.43,5.75,5.75,0,0,0,2.19,1.07c16.64,5.39,38.77,2.33,53.76-5.29a9.25,9.25,0,0,1,4.85-1.4c3.47.26,3.41,3.29,2.42,5.36-5.4-.63-10.58,1.62-15.49,3.3a82.91,82.91,0,0,1-37,3.36c-9.33-1.3-19-5.3-18.9-11.17,0-3.63,3.91-7,8.52-9.41,8.83-4.64,21-6.76,32.23-5.6,3.08.32,6.19.87,9.32.55s6.29-1.94,6-3.84a3.35,3.35,0,0,0-1.57-2.09c-3.05-2.21-8.16-2.94-13-3s-9.74.28-14.46-.23"/>
      <path class="cls-7" d="M259.11,181.91,270.92,179c2.56,2.53,5,5.13,5.34,8.24s-1.72,6.81-7.18,10.17a47.39,47.39,0,0,1-22,6.19c-7.07,0-10.62-2.46-12.69-5s-3.42-5.49-8.24-7c-6.79-2.14-20.26-.64-29.82,3.32a11.72,11.72,0,0,0-2.49,1.3,2.34,2.34,0,0,0-.94,1.64c-1.74,10.32,16.16,16.42,39.26,16.4,2.19,0,4.67,0,5.37.79,1.34,1.51-4.68,3.75-9.3,4.92-1.66-2.51-8.88-2.79-14.82-3.4-13.61-1.39-23.25-5.57-26.45-11.49-2.43-4.5.31-11.14,11.94-15.49,7.21-2.71,15.9-3.74,23.16-3.81,13.9-.12,24.63,2.92,28.34,8,1,1.41,1.59,3,3.91,3.94s7.2.94,10.83-.57a9.85,9.85,0,0,0,3.29-2.16c2.73-2.81,1.42-5.28-1-7.19s-5.78-3.48-7.29-5.65"/>
      <path class="cls-8" d="M212.51,203.11c1.39-.74-.1-1.68-2.15-1.62a11.43,11.43,0,0,0-5.29,1.56c-3.81,2.33-2.41,5.31,2.49,6.41s12.39.37,17.72-1.46,8.47-4.59,8.8-7.1c.21-1.6-.84-3.23-4-3.9a26.34,26.34,0,0,0-5.9-.32c-8.58.33-17,2.57-25.49,4.07a22.88,22.88,0,0,1-7.53.45,4.77,4.77,0,0,1-2.68-1.34c-3.71-3.8,3-9.36,13.38-12,10.88-2.8,24.18-2.76,34.28-6.08a5.45,5.45,0,0,0,2-.93c.91-.92-1.35-1.51-3.31-1.8-7.62,2-15.54,3.84-23.63,5.36-3.83.72-7.71,1.38-11.39,2.27-5.87,1.41-11.24,3.45-14.43,5.87s-4,5.21-1.3,7.18,9,2.9,15.24,2c3-.45,5.68-1.27,8.49-1.94a54.62,54.62,0,0,1,11.7-1.63c3.9-.06,7.58.57,9.1,1.87s.86,2.77-.33,4.24a11,11,0,0,1-6.13,3.59,22.31,22.31,0,0,1-10.89-.3c-1.79-.53-3.29-1.3-3.24-2.3s2.18-2.22,4.71-2.37"/>
      <path class="cls-16" d="M216.25,195.71c1.65.4,2.44-.86,1.5-2a8.17,8.17,0,0,0-4.45-2.13c-5-1-8.83,1.23-8.44,4.43s4.5,6.93,9.38,9,10.23,2.41,14.06,1.39c2.45-.66,4.43-2,4.11-4.07a7.49,7.49,0,0,0-1.94-3.38c-4-4.52-10.72-8-16.4-11.93-1.71-1.17-3.46-2.55-3.74-3.89a2.26,2.26,0,0,1,.89-2.11c4.09-3.84,15-2.85,23.2,1.52,8.55,4.59,13.93,11.86,23,15.77a6.16,6.16,0,0,0,2.15.62c1.73.05,1.68-1.46,1.31-2.67A188.22,188.22,0,0,1,243.3,186c-2.63-1.74-5.19-3.54-8-5.12a40.71,40.71,0,0,0-14.54-5.05c-4.87-.58-9.32.34-11.14,2.74s-.59,6.32,3.33,9.25a60.74,60.74,0,0,0,6.33,3.7,25.11,25.11,0,0,1,7.18,5.59c1.68,2.1,2.25,4.41,1,5.86s-3.75,1.8-6.41,1.86a15.65,15.65,0,0,1-7.78-1.62c-2.9-1.61-4.1-4.13-4-6.08a2.89,2.89,0,0,1,2.08-2.88,6.23,6.23,0,0,1,5.4,1.44"/>
      <path class="cls-17" d="M234.33,206.6c-1.36-.94-4.32-.2-4.94,1s.47,2.52,2,3.39c4.51,2.64,12.65,2.25,17.31-.51s5.69-7.34,3-10.8-8.5-5.76-14.76-6.34c-4-.37-8.58,0-11.5,1.82a8,8,0,0,0-3.07,3.47c-2.44,5.18.07,10.55.68,15.85.18,1.58.08,3.36-1.73,4.56a11.26,11.26,0,0,1-4.45,1.4c-11.12,1.63-22.76-3.23-25.6-9.82-3-6.93,2.18-14.87-2.45-21.41a3.25,3.25,0,0,0-1.62-1.31c-2-.68-4.37.58-5.86,1.71A55.21,55.21,0,0,1,186,204.58a37,37,0,0,0,1.45,7.15c1.38,3.72,4.53,7.24,9.48,9.51a30,30,0,0,0,17.85,1.88c6-1.3,10.86-5,10.81-8.81,0-1.84-1.06-3.58-1.72-5.37a8.41,8.41,0,0,1,.3-7.24c1.34-2.33,4.35-4.43,8.24-5.15a24.48,24.48,0,0,1,10.73.85c3,.87,6,2.21,6.81,4.21.92,2.38-1.67,4.89-4.92,6.46a14.28,14.28,0,0,1-7.11,1.58c-2.54-.18-4.82-1.64-4.24-3.17"/>
      <path class="cls-21" d="M263.66,230.19a26,26,0,0,0,10.25.34c3.34-.69,6.21-2.69,5.92-4.8-.26-1.85-2.71-3.22-4.94-4.45s-4.34-2.48-5.53-4.12A3.54,3.54,0,0,1,270,212c2.59-2,7.41-2.07,11.33-2.94,7-1.58,11.59-6.37,11.12-10.85s-5.36-8.45-11.83-10.49a16.93,16.93,0,0,0-9-.67c-1.67.43-3.05,1.24-4.75,1.64a9.34,9.34,0,0,1-6.53-.82,4.69,4.69,0,0,0-1.08,2.93c6.68.24,13.59-2.16,19.94-1,4.92.89,8.22,3.89,8.63,7s-1.74,6.31-5,8.83a12.94,12.94,0,0,1-3.87,2.14c-3,1-6.7.79-9.58,1.88a8.65,8.65,0,0,0-4.74,4.36c-.66,1.3-1.08,2.73-.29,4a10,10,0,0,0,3.21,2.48,38.73,38.73,0,0,1,4.93,3.52c.71.6,1.41,1.26,1.46,2,.08,1.29-1.84,2.42-3.91,2.79a22.76,22.76,0,0,1-6.33-.09c-.72.57-.55,1.46.34,1.88"/>
      <path class="cls-18" d="M219.67,224.59a9,9,0,0,0,6.16,4.9,18.93,18.93,0,0,0,12.37-1.35c3.1-1.68,3.9-3.92,4.6-6a13.11,13.11,0,0,1,3.64-6,17.76,17.76,0,0,1,9.62-4.07c5.27-.52,8.53,1.61,12.67,2.64,7.42,1.86,18.88-.11,26.49-4.08s11.37-9.5,10.72-14.13c-.28-2-1.49-3.94-4.76-4.63-1.86-.39-4.21-.33-6-.76-2.4-.58-3.56-2.06-2.85-3.63a26.05,26.05,0,0,0-5.9,2c4,3.21,12.78,4.31,14.92,8.14,1.66,3-1.46,7-6.73,9.79s-12.3,4.51-18.92,5.14a27.93,27.93,0,0,1-6.32,0c-3.7-.52-5.82-2.36-9.65-2.74-3.3-.33-7.26.49-10.81,1.52-2.74.79-5.54,1.8-7.2,3.2a8.17,8.17,0,0,0-2.26,3.52,27.15,27.15,0,0,1-3,5.18,7.06,7.06,0,0,1-2.61,2.35,11.22,11.22,0,0,1-7.5.57,8.33,8.33,0,0,1-4-2.92c-1.47.15-2.94,1-3.08,1.73"/>
      <path class="cls-19" d="M257.33,205.12c2.21-2.19,4.46-4.44,5.24-6.94s-.23-5.32-3.55-6.75a18.34,18.34,0,0,0-6.5-1.16c-9.07-.26-18.42,2.86-23.1,7.72s-4.47,11.22.52,15.72a22.68,22.68,0,0,0,11.86,5.15c6.86,1,14.21-.54,20.54-2.67,11.59-3.91,21.85-10.81,22.16-18.74.1-2.49-1.9-5.53-6-5.46,2.58,3.79,2.21,8.34-1,12.09a23,23,0,0,1-4.19,3.7A40.55,40.55,0,0,1,253.49,215c-7.71.62-16-1.36-19.63-5.44-2.92-3.3-2.34-7.7,1.43-10.84s10.56-4.86,16.71-4.25c3.74.38,7.68,2.18,6.92,4.47-.32,1-1.4,1.76-2.32,2.58s-1.74,1.79-1.42,2.73,2.35,1.62,3.59,1"/>
      <g class="cls-6">
        <path class="cls-7" d="M191.39,223.72,181,227.92c-3.54-1.9-7-3.89-8.59-6.62s-1.09-6.32,2.89-10.08,11.93-7.56,19.09-8.56c7-1,11.43.74,14.52,2.75s5.59,4.44,10.94,5.13c7.54,1,20.15-2.22,27.91-7.07a7.92,7.92,0,0,0,1.92-1.51,1.64,1.64,0,0,0,.26-1.58c-2.51-9.47-22.57-12.45-45.23-9.26-2.15.3-4.59.64-5.59,0-1.93-1.16,3.06-4,7.12-5.68,2.65,2,9.85,1.28,15.93,1,13.93-.63,25.09,1.78,30.64,6.62,4.23,3.69,4.25,10-5.39,15.49-6,3.41-14.08,5.53-21.19,6.59-13.58,2-25.35.79-31.08-3.27-1.58-1.11-2.78-2.46-5.45-3a16.89,16.89,0,0,0-10.39,2,6.33,6.33,0,0,0-2.35,2.38c-1.53,2.88.76,4.91,3.87,6.29s7.08,2.31,9.46,4"/>
      </g>
      <g class="cls-6">
        <path class="cls-21" d="M167.23,181.21A27.91,27.91,0,0,0,157,182.32c-3,1.08-5,3.26-3.86,5.1,1,1.62,4,2.5,6.66,3.3a25.12,25.12,0,0,1,7.11,2.92c1.84,1.3,2.73,3.17,1.47,4.74-1.72,2.15-6.43,2.86-9.92,4.19-6.28,2.37-8.78,7.28-6.5,11.22s8.72,6.81,15.9,7.74c3,.4,6.54.44,9.12-.64,1.47-.61,2.49-1.53,4-2.12a10.75,10.75,0,0,1,6.75-.16,3.54,3.54,0,0,0-.14-2.78c-6.65.71-12.45,3.81-19.16,3.65-5.19-.13-9.66-2.35-11.33-5.09s-.87-5.89,1.33-8.59a8.8,8.8,0,0,1,2.93-2.44c2.52-1.29,6.25-1.63,8.64-3a5.54,5.54,0,0,0,2.87-4.54,3.72,3.72,0,0,0-1.34-3.59,15,15,0,0,0-4.16-1.77,54.54,54.54,0,0,1-6.27-2.47,4.89,4.89,0,0,1-2.26-1.6c-.6-1.15.82-2.42,2.71-3a24.18,24.18,0,0,1,6.24-.8c.47-.6,0-1.37-1.1-1.62"/>
      </g>
      <g class="cls-6">
        <path class="cls-18" d="M212.69,180.16a13.13,13.13,0,0,0-8-3.53c-3.74-.35-8.91.73-11.59,2.91-2.36,1.92-2.23,4-2.09,6a8.75,8.75,0,0,1-1.15,5.82,13.14,13.14,0,0,1-7.78,5c-5,1.19-9-.26-13.51-.61-8-.64-18.48,2.7-24.34,7.29s-7.28,10.06-4.76,14.11a7.7,7.7,0,0,0,6.56,3.47c2,.1,4.27-.28,6.23-.14,2.58.18,4.33,1.34,4.28,2.85a20.81,20.81,0,0,0,5-2.58c-5.22-2.32-14.29-2.09-18-5.22-2.84-2.42-1.41-6.43,2.61-9.67s10.24-5.72,16.48-7.2a28.77,28.77,0,0,1,6.18-.91c3.85,0,6.67,1.3,10.59,1.12a28.19,28.19,0,0,0,10-2.85c2.36-1.08,4.7-2.37,5.76-3.85a5.39,5.39,0,0,0,.78-3.46,18.78,18.78,0,0,1,.81-5,4.41,4.41,0,0,1,1.6-2.46,11,11,0,0,1,7.13-1.54,12.19,12.19,0,0,1,5.14,2c1.38-.34,2.48-1.27,2.32-2"/>
      </g>
      <g class="cls-6">
        <path class="cls-15" d="M259.4,192.19l2.74-4.87a107.24,107.24,0,0,1,17.68,2c5.57,1.25,10.63,3.5,12.88,6.63s1.09,7.21-3.67,9.44c-4.61,2.16-11.16,2.17-17,1.68s-11.7-1.35-17.47-.54c-8.11,1.14-14.3,5.91-13.69,10.56a2.05,2.05,0,0,0,.62,1.34,6.23,6.23,0,0,0,2.2,1c16.69,5,38.87,2.23,53.9-4.84a10,10,0,0,1,4.86-1.3c3.47.25,3.42,3.07,2.43,5-5.42-.58-10.61,1.5-15.53,3.05a89.3,89.3,0,0,1-37,3.07c-9.36-1.22-19-5-19-10.42,0-3.39,3.91-6.5,8.53-8.75,8.84-4.3,21.07-6.25,32.3-5.16a48,48,0,0,0,9.35.53c3.14-.3,6.31-1.79,6.07-3.57a3.19,3.19,0,0,0-1.59-1.94c-3.06-2.06-8.18-2.75-13-2.85s-9.76.24-14.5-.24"/>
      </g>
      <g class="cls-6">
        <path class="cls-7" d="M273.39,185.37l11.84-2.65c2.57,2.35,5,4.78,5.37,7.67s-1.72,6.33-7.18,9.45a50.2,50.2,0,0,1-22.07,5.73c-7.09,0-10.65-2.31-12.74-4.71s-3.44-5.12-8.27-6.54c-6.81-2-20.31-.63-29.89,3a11.66,11.66,0,0,0-2.5,1.21,2.17,2.17,0,0,0-.94,1.52c-1.73,9.6,16.24,15.31,39.4,15.33,2.19,0,4.68,0,5.38.74,1.35,1.41-4.69,3.48-9.31,4.56-1.68-2.33-8.91-2.61-14.87-3.18-13.65-1.32-23.32-5.23-26.54-10.74-2.45-4.19.29-10.36,12-14.4,7.22-2.5,15.93-3.45,23.22-3.5,13.93-.09,24.69,2.75,28.42,7.51,1,1.31,1.6,2.79,3.93,3.67s7.22.88,10.86-.52a9.8,9.8,0,0,0,3.29-2c2.73-2.61,1.42-4.91-1-6.69s-5.79-3.24-7.31-5.27"/>
      </g>
      <g class="cls-6">
        <path class="cls-8" d="M153.14,201.08c1.39-.68-.1-1.56-2.16-1.5a11.86,11.86,0,0,0-5.3,1.44c-3.82,2.16-2.41,4.94,2.51,6s12.43.37,17.77-1.32,8.48-4.26,8.81-6.59c.21-1.49-.86-3-4.06-3.64a27.2,27.2,0,0,0-5.92-.3c-8.6.28-17,2.35-25.55,3.74a25,25,0,0,1-7.55.41A5,5,0,0,1,129,198c-3.72-3.54,3-8.71,13.39-11.17,10.91-2.58,24.24-2.52,34.37-5.6a5.69,5.69,0,0,0,2-.85c.91-.86-1.35-1.41-3.32-1.68-7.63,1.88-15.57,3.54-23.68,4.94-3.84.67-7.73,1.28-11.42,2.1-5.88,1.3-11.26,3.19-14.46,5.43s-4,4.85-1.29,6.69,9.07,2.71,15.28,1.84c3-.41,5.7-1.17,8.52-1.79a58.67,58.67,0,0,1,11.73-1.5c3.9-.05,7.59.55,9.12,1.76s.87,2.58-.33,3.95a11,11,0,0,1-6.13,3.32,24,24,0,0,1-10.93-.29c-1.79-.5-3.3-1.22-3.25-2.15s2.19-2.06,4.72-2.19"/>
      </g>
      <g class="cls-6">
        <path class="cls-16" d="M242,196.84c1.67.38,2.45-.79,1.51-1.8a8.52,8.52,0,0,0-4.47-2c-5-.9-8.85,1.14-8.45,4.11s4.52,6.46,9.42,8.36a24.88,24.88,0,0,0,14.1,1.31c2.45-.6,4.43-1.86,4.11-3.78a6.8,6.8,0,0,0-2-3.14c-4-4.21-10.76-7.5-16.47-11.14-1.71-1.09-3.47-2.38-3.75-3.62a2,2,0,0,1,.89-2c4.1-3.57,15.08-2.63,23.26,1.45,8.59,4.29,14,11.06,23.05,14.72a6.73,6.73,0,0,0,2.16.57c1.73.06,1.68-1.35,1.3-2.48a194.52,194.52,0,0,1-17.6-9.62c-2.63-1.62-5.2-3.3-8-4.78a43.18,43.18,0,0,0-14.59-4.72c-4.88-.55-9.34.3-11.16,2.53s-.58,5.88,3.35,8.61a60,60,0,0,0,6.36,3.45,25.39,25.39,0,0,1,7.21,5.22c1.68,2,2.26,4.1,1,5.45s-3.76,1.67-6.43,1.72a16.56,16.56,0,0,1-7.8-1.52c-2.91-1.5-4.12-3.84-4-5.66a2.69,2.69,0,0,1,2.08-2.67,6.61,6.61,0,0,1,5.42,1.34"/>
      </g>
      <g class="cls-6">
        <path class="cls-17" d="M251.08,205.53c-1.36-.88-4.33-.19-5,1s.47,2.35,2,3.16c4.53,2.46,12.69,2.12,17.36-.44s5.69-6.83,3-10.05-8.53-5.38-14.82-5.93c-4-.35-8.6,0-11.52,1.68a7.58,7.58,0,0,0-3.07,3.23c-2.44,4.81.08,9.81.7,14.74.19,1.48.09,3.14-1.72,4.25a12,12,0,0,1-4.46,1.29c-11.15,1.5-22.83-3-25.69-9.18-3-6.45,2.16-13.83-2.49-19.93a3.24,3.24,0,0,0-1.63-1.21c-2-.64-4.37.52-5.87,1.57a48.83,48.83,0,0,1,4.71,13.9,31.78,31.78,0,0,0,1.47,6.66c1.38,3.46,4.54,6.74,9.51,8.87a32.26,32.26,0,0,0,17.91,1.77c6.05-1.2,10.87-4.59,10.83-8.17,0-1.72-1.08-3.34-1.74-5a7.31,7.31,0,0,1,.29-6.74c1.33-2.17,4.35-4.12,8.25-4.78a26.21,26.21,0,0,1,10.76.81c3.05.81,6.05,2.06,6.83,3.92.93,2.23-1.66,4.55-4.91,6a15.39,15.39,0,0,1-7.14,1.46c-2.54-.17-4.83-1.53-4.25-3"/>
      </g>
      <g class="cls-6">
        <path class="cls-21" d="M280.53,227.54a28.13,28.13,0,0,0,10.27.32c3.36-.63,6.23-2.49,5.93-4.45-.26-1.72-2.72-3-5-4.14s-4.36-2.32-5.56-3.85a3.15,3.15,0,0,1,.65-4.84c2.6-1.87,7.43-1.91,11.37-2.72,7.06-1.45,11.6-5.91,11.13-10.08s-5.4-7.87-11.88-9.78a18.31,18.31,0,0,0-9-.64c-1.68.4-3.06,1.16-4.77,1.52a10,10,0,0,1-6.54-.77,4.06,4.06,0,0,0-1.08,2.73c6.69.23,13.61-2,20-.91,4.93.84,8.25,3.64,8.66,6.56s-1.74,5.87-5,8.21a13.18,13.18,0,0,1-3.87,2c-3,.91-6.72.72-9.61,1.73a8.41,8.41,0,0,0-4.74,4.05c-.66,1.21-1.09,2.54-.28,3.69a9.67,9.67,0,0,0,3.22,2.31,38.89,38.89,0,0,1,4.94,3.29c.72.56,1.42,1.18,1.47,1.88.08,1.21-1.84,2.26-3.92,2.59a25,25,0,0,1-6.35-.09c-.71.53-.54,1.36.35,1.75"/>
      </g>
      <g class="cls-6">
        <path class="cls-19" d="M274.14,204.19c2.21-2,4.46-4.12,5.24-6.44s-.24-4.95-3.56-6.29a19.68,19.68,0,0,0-6.53-1.09c-9.1-.26-18.46,2.62-23.14,7.14s-4.47,10.43.55,14.64A23.74,23.74,0,0,0,258.59,217c6.88.92,14.25-.48,20.59-2.46,11.62-3.62,21.89-10,22.19-17.4.1-2.31-1.91-5.15-6-5.09,2.59,3.53,2.22,7.76-1,11.25a22.46,22.46,0,0,1-4.19,3.44,42.46,42.46,0,0,1-19.89,6.63c-7.74.57-16.07-1.29-19.7-5.09-2.93-3.08-2.36-7.17,1.43-10.09s10.57-4.5,16.74-3.92c3.75.36,7.7,2,6.94,4.17-.32.89-1.4,1.64-2.32,2.4s-1.74,1.66-1.42,2.54,2.36,1.51,3.61.92"/>
      </g>
      <g>
        <path class="cls-9" d="M308.06,215.52c-7.56,8.73-18.92,8.79-25.17,3.38s-8.53-17.19-1-25.93a24.37,24.37,0,0,1,2.56-2.51c8.48-7.16,23.63-10.94,29.25-6.07C320,189.8,315.61,206.79,308.06,215.52Z"/>
        <ellipse class="cls-22" cx="294.61" cy="204.91" rx="10.33" ry="8.34" transform="translate(-53.11 293.65) rotate(-49.14)"/>
      </g>
      <g>
        <path class="cls-9" d="M289.22,210.15c-4.22,10.75-14.92,14.59-22.61,11.56s-13.77-13.37-9.55-24.12a23.91,23.91,0,0,1,1.58-3.22c5.61-9.58,18.64-18.17,25.57-15.46C291.9,181.94,293.44,199.4,289.22,210.15Z"/>
        <ellipse class="cls-22" cx="273.01" cy="204.62" rx="10.33" ry="8.34" transform="translate(-17.22 383.98) rotate(-68.57)"/>
      </g>
      <g class="cls-23">
        <path class="cls-9" d="M228.26,218a2.51,2.51,0,0,1,2.29-4.27,2.1,2.1,0,0,1-.26-3,3.49,3.49,0,0,1,3.16-1,3.5,3.5,0,0,1,.44-3.47,2.26,2.26,0,0,1,3.24-.22,3.65,3.65,0,0,1,5.5-3.49,4,4,0,0,1,3-2.71,2.44,2.44,0,0,1,2.75,2.43,3.28,3.28,0,0,1,3.58-1.08,2.2,2.2,0,0,1,.95,3.28,4.35,4.35,0,0,1,3.77,1.38c.83,1.12.4,3.11-1,3.36a5.81,5.81,0,0,1,1.63,3.54,2.54,2.54,0,0,1-2.37,2.64,5.43,5.43,0,0,1-4.09,8.71,2.42,2.42,0,0,1-3.8,2.78,4.38,4.38,0,0,1-2.8,3.88c-.94.35-2.41-.09-2.23-1.08l-2.42,2.17a2.93,2.93,0,0,1-1.94,1c-.75,0-1.4-1-.88-1.54a6.34,6.34,0,0,1-4,.57,3,3,0,0,1-2.12-1.28,1.52,1.52,0,0,1,.63-2.15,4.33,4.33,0,0,1-3.34-2.16c-.56-1.26.34-3.1,1.71-3a3.72,3.72,0,0,1-3.28-2.06c-.49-1.27.49-3,1.84-2.87"/>
        <path class="cls-24" d="M243.14,216c.14.2.26.71,0,.89-.52.37-.95-.41-1-.74a2.05,2.05,0,0,1,.83-2c1.57-1.18,3.18.66,2.93,2.21a4.91,4.91,0,0,1-1.81,3,2.77,2.77,0,0,1-3.78-.75c-1.71-2-.57-5,1.32-6.43,2.26-1.74,5.94-1.44,7.12,1.44.91,2.25-.09,4.9-1.14,6.93-1.14,2.2-2.94,4.35-5.41,5.06A5.51,5.51,0,0,1,235.7,223a11.82,11.82,0,0,1-1.7-7.33c.43-3,2.67-5,5.06-6.66,2.78-1.93,6.17-3.47,9.54-2.14.28.11,1.23-.31.84-.47-3.62-1.42-7.49,0-10.56,2.05s-5.88,4.47-6,8.35c-.09,3.21,1.37,7.79,4.62,9.07,2.87,1.14,6.26.05,8.45-2,2.35-2.17,4.41-6,4.11-9.25-.33-3.59-4.14-4.86-7.18-3.8-2.74,1-5.66,4.23-4.12,7.28,1.41,2.8,5,2.72,6.92.5,1.05-1.25,1.91-3.4.52-4.72a3.19,3.19,0,0,0-3.9-.08c-1.2.79-2.06,3.17-.1,3.62,1,.25,2.72-.72,1.9-1.91-.18-.25-1.18.08-1,.39Z"/>
      </g>
      <g>
        <path class="cls-25" d="M264.36,225.57l-5.42-2.69c-3-1.47-1.61-4.58.67-7.1l4.35-3.26,6.13,2.75L268.65,221C267.39,224.44,267.19,227,264.36,225.57Z"/>
        <path class="cls-26" d="M279.54,219.69c-1.81,3.65-8.78,1.5-14.63-1.4s-12.11-6.81-10.31-10.46,11.84-7.6,17.69-4.69S281.35,216.05,279.54,219.69Z"/>
      </g>
      <g class="cls-6">
        <ellipse class="cls-27" cx="206.74" cy="204.55" rx="4.05" ry="5.06" transform="translate(-2.48 406.57) rotate(-88.69)"/>
        <ellipse class="cls-28" cx="206.74" cy="204.55" rx="3.09" ry="3.86" transform="translate(-2.48 406.57) rotate(-88.69)"/>
      </g>
      <g class="cls-6">
        <ellipse class="cls-27" cx="220.75" cy="216.69" rx="4.05" ry="5.06" transform="translate(-0.92 432.44) rotate(-88.69)"/>
        <ellipse class="cls-28" cx="220.75" cy="216.69" rx="3.09" ry="3.86" transform="translate(-0.92 432.44) rotate(-88.69)"/>
      </g>
      <g>
        <ellipse class="cls-27" cx="226.02" cy="208.58" rx="4.05" ry="5.06" transform="translate(12.33 429.78) rotate(-88.69)"/>
        <ellipse class="cls-28" cx="226.02" cy="208.58" rx="3.09" ry="3.86" transform="translate(12.33 429.78) rotate(-88.69)"/>
      </g>
      <g class="cls-23">
        <ellipse class="cls-27" cx="224.61" cy="216.78" rx="4.05" ry="5.06" transform="translate(2.76 436.39) rotate(-88.69)"/>
        <ellipse class="cls-28" cx="224.61" cy="216.78" rx="3.09" ry="3.86" transform="translate(2.76 436.39) rotate(-88.69)"/>
      </g>
      <g class="cls-29">
        <ellipse class="cls-27" cx="215.89" cy="213.54" rx="4.05" ry="5.06" transform="translate(-2.52 424.5) rotate(-88.69)"/>
        <ellipse class="cls-28" cx="215.89" cy="213.54" rx="3.09" ry="3.86" transform="translate(-2.52 424.5) rotate(-88.69)"/>
      </g>
      <g>
        <ellipse class="cls-27" cx="245.48" cy="190.18" rx="4.05" ry="5.06" transform="translate(49.75 431.26) rotate(-88.69)"/>
        <ellipse class="cls-28" cx="245.48" cy="190.18" rx="3.09" ry="3.86" transform="translate(49.75 431.26) rotate(-88.69)"/>
      </g>
      <g>
        <ellipse class="cls-27" cx="229.64" cy="192.25" rx="4.05" ry="5.06" transform="translate(32.2 417.45) rotate(-88.69)"/>
        <ellipse class="cls-28" cx="229.64" cy="192.25" rx="3.09" ry="3.86" transform="translate(32.2 417.45) rotate(-88.69)"/>
      </g>
      <g>
        <ellipse class="cls-27" cx="199.67" cy="213.04" rx="4.05" ry="5.06" transform="translate(-17.87 407.81) rotate(-88.69)"/>
        <ellipse class="cls-28" cx="199.67" cy="213.04" rx="3.09" ry="3.86" transform="translate(-17.87 407.81) rotate(-88.69)"/>
      </g>
      <g class="cls-30">
        <ellipse class="cls-27" cx="242.14" cy="194.91" rx="4.05" ry="5.06" transform="translate(41.76 432.54) rotate(-88.69)"/>
        <ellipse class="cls-28" cx="242.14" cy="194.91" rx="3.09" ry="3.86" transform="matrix(0.02, -1, 1, 0.02, 41.76, 432.54)"/>
      </g>
      <g>
        <ellipse class="cls-27" cx="219.81" cy="210.54" rx="4.05" ry="5.06" transform="translate(4.31 425.5) rotate(-88.69)"/>
        <ellipse class="cls-28" cx="219.81" cy="210.54" rx="3.09" ry="3.86" transform="translate(4.31 425.5) rotate(-88.69)"/>
      </g>
      <g>
        <ellipse class="cls-27" cx="210.4" cy="214.78" rx="4.05" ry="5.06" transform="matrix(0.02, -1, 1, 0.02, -9.12, 420.23)"/>
        <ellipse class="cls-28" cx="210.4" cy="214.78" rx="3.09" ry="3.86" transform="matrix(0.02, -1, 1, 0.02, -9.12, 420.23)"/>
      </g>
      <g>
        <ellipse class="cls-27" cx="195" cy="198.14" rx="4.05" ry="5.06" transform="translate(-7.53 388.57) rotate(-88.69)"/>
        <ellipse class="cls-28" cx="195" cy="198.14" rx="3.09" ry="3.86" transform="translate(-7.53 388.57) rotate(-88.69)"/>
      </g>
      <g>
        <path class="cls-31" d="M117.71,204.15,185,212.7s12.69-7.25-6-17-26-13.74-36-13.85-22.6-2.1-27.5,4.59S117.71,204.15,117.71,204.15Z"/>
        <path class="cls-32" d="M118.87,204.39,184,212.66s12.28-7-5.82-16.46S153,182.9,143.31,182.8s-21.86-2-26.6,4.44S118.87,204.39,118.87,204.39Z"/>
      </g>
      <g>
        <path class="cls-31" d="M122.61,209l67.29,8.55s12.7-7.24-6-17-26-13.75-36-13.85-22.6-2.1-27.49,4.59S122.61,209,122.61,209Z"/>
        <path class="cls-32" d="M123.77,209.21l65.09,8.27s12.28-7-5.81-16.45-25.13-13.3-34.83-13.4-21.86-2-26.6,4.44S123.77,209.21,123.77,209.21Z"/>
      </g>
      <g>
        <path class="cls-31" d="M128,215.19l67.29,8.55s12.7-7.24-6-17-26-13.75-36-13.85-22.6-2.1-27.5,4.59S128,215.19,128,215.19Z"/>
        <path class="cls-32" d="M129.11,215.43l65.09,8.27s12.28-7-5.82-16.45-25.12-13.3-34.83-13.4-21.86-2-26.6,4.44S129.11,215.43,129.11,215.43Z"/>
      </g>
      <path class="cls-2" d="M216.56,222.6c-50-1.14-92.86-8.62-101.54-21.69-1.23,1.83-.13,5.69-.18,7.69-.39,17.1,44.8,24,101.46,25.33s100.92-5.23,101.31-22.33c0-2,1.33-5.85.17-7.68C308.43,216.94,266.59,223.74,216.56,222.6Z"/>
      <g class="cls-6">
        <path class="cls-19" d="M196.94,207c-1.27,2.26-2.56,4.58-2.31,6.92s2.39,4.72,6.23,5.55a21.84,21.84,0,0,0,6.86.13c9-1,16.91-5.08,19.52-10.07s-.18-10.64-6.92-14a31.23,31.23,0,0,0-13.73-3,42.74,42.74,0,0,0-19.08,5.22c-9.78,5.09-17,12.67-14.11,19.79a7.61,7.61,0,0,0,8.11,4.06c-4.08-3-5.57-7.15-4-10.94a14.58,14.58,0,0,1,2.6-3.88,31.29,31.29,0,0,1,16.56-9.14c7.32-1.62,16.29-1,21.49,2.16,4.22,2.55,5.44,6.56,3,9.88s-8.37,5.8-14.66,6.09c-3.83.18-8.43-.88-8.62-3-.07-.91.66-1.77,1.23-2.63s1-1.84.28-2.64a3.65,3.65,0,0,0-3.93-.38"/>
      </g>
      <g class="cls-33">
        <ellipse class="cls-27" cx="187.45" cy="211.73" rx="4.05" ry="5.06" transform="translate(-28.5 394.3) rotate(-88.69)"/>
        <ellipse class="cls-28" cx="187.45" cy="211.73" rx="3.09" ry="3.86" transform="translate(-28.5 394.3) rotate(-88.69)"/>
      </g>
    </g>
  </g>
</svg>
