<svg id="Layer_1" data-name="Layer 1" xmlns="http://www.w3.org/2000/svg" width="594.62" height="565.2" viewBox="0 0 594.62 565.2">
  <defs>
    <style>
      .cls-1 {
        fill: #fddeb0;
      }

      .cls-2 {
        fill: #eba228;
      }

      .cls-3 {
        fill: #915234;
      }

      .cls-4, .cls-6, .cls-7 {
        fill: none;
        stroke-miterlimit: 10;
      }

      .cls-4 {
        stroke: #915334;
        stroke-width: 2.26px;
      }

      .cls-5 {
        fill: #fff;
      }

      .cls-6 {
        stroke: #585657;
      }

      .cls-6, .cls-7 {
        stroke-width: 9.03px;
      }

      .cls-7 {
        stroke: #575757;
      }

      .cls-8 {
        fill: #dda3ca;
      }

      .cls-9 {
        fill: #ee7a68;
      }

      .cls-10 {
        fill: #f5cfe4;
      }

      .cls-11 {
        fill: #dadada;
      }
    </style>
  </defs>
  <g>
    <g>
      <ellipse class="cls-1" cx="423.49" cy="300.52" rx="79.84" ry="127.34" transform="translate(-9.02 587.9) rotate(-68.96)"/>
      <ellipse class="cls-2" cx="423.49" cy="300.52" rx="72.67" ry="115.9" transform="translate(-9.02 587.9) rotate(-68.96)"/>
      <ellipse class="cls-1" cx="423.49" cy="300.52" rx="65.15" ry="103.92" transform="translate(-9.02 587.9) rotate(-68.96)"/>
      <ellipse class="cls-2" cx="423.49" cy="300.52" rx="58.52" ry="91.73" transform="translate(-8.96 587.99) rotate(-68.97)"/>
      <ellipse class="cls-1" cx="423.49" cy="300.52" rx="50.13" ry="83.04" transform="translate(-9.13 587.74) rotate(-68.94)"/>
      <ellipse class="cls-2" cx="423.49" cy="300.52" rx="42.24" ry="72.15" transform="translate(-9.2 587.63) rotate(-68.93)"/>
      <ellipse class="cls-1" cx="423.49" cy="300.52" rx="34.63" ry="59.15" transform="translate(-9.2 587.63) rotate(-68.93)"/>
      <ellipse class="cls-2" cx="423.49" cy="300.52" rx="27.23" ry="47.61" transform="translate(-9.25 587.55) rotate(-68.92)"/>
      <ellipse class="cls-1" cx="423.49" cy="300.52" rx="20.65" ry="36.11" transform="translate(-9.25 587.55) rotate(-68.92)"/>
    </g>
    <g>
      <g>
        <path class="cls-3" d="M534.62,4.93a3.32,3.32,0,0,1,.12-1.87c.9-2.38,4.41-3.5,7.86-2.49s5.5,3.78,4.62,6.16a3.5,3.5,0,0,1-.89,1.33c-1.47,1.44-4.23,2-7,1.17C536.84,8.48,535,6.75,534.62,4.93Z"/>
        <path class="cls-3" d="M546.33,8.06l-5.52,12.41h0l-10.66-4.59,4.5-11c.39,1.82,2.22,3.55,4.76,4.3C542.1,10,544.86,9.5,546.33,8.06Z"/>
        <polygon class="cls-3" points="540.81 20.47 539.54 23.34 539.49 23.32 529.5 19.19 528.85 18.92 530.09 15.88 530.12 15.88 540.78 20.47 540.81 20.47"/>
        <polygon class="cls-3" points="539.54 23.34 414.9 303.56 412.2 302.46 528.85 18.92 529.5 19.19 539.49 23.32 539.54 23.34"/>
      </g>
      <g>
        <polyline class="cls-4" points="530.09 15.88 528.85 18.92 412.2 302.46 411.86 303.27"/>
        <polyline class="cls-4" points="534.67 4.8 534.62 4.93 530.12 15.88"/>
        <polyline class="cls-4" points="546.33 8.06 540.81 20.47 539.54 23.34 414.9 303.56"/>
        <path class="cls-4" d="M534.62,4.93a3.32,3.32,0,0,1,.12-1.87c.9-2.38,4.41-3.5,7.86-2.49s5.5,3.78,4.62,6.16a3.5,3.5,0,0,1-.89,1.33c-1.47,1.44-4.23,2-7,1.17C536.84,8.48,535,6.75,534.62,4.93Z"/>
        <polyline class="cls-4" points="530.09 15.88 530.12 15.88 540.78 20.47"/>
        <line class="cls-4" x1="529.5" y1="19.19" x2="539.49" y2="23.32"/>
      </g>
    </g>
    <g>
      <g>
        <path class="cls-3" d="M579.19,21.52a3.28,3.28,0,0,1,.38-1.83c1.23-2.24,4.86-2.84,8.13-1.36s4.92,4.48,3.71,6.74a3.3,3.3,0,0,1-1.06,1.17v0c-1.66,1.22-4.47,1.35-7.07.17C580.85,25.32,579.32,23.38,579.19,21.52Z"/>
        <path class="cls-3" d="M590.35,26.26l-7.22,11.5h0l-9.92-6,6-10.22c.13,1.86,1.66,3.8,4.09,4.91C585.88,27.61,588.69,27.48,590.35,26.26Z"/>
        <polygon class="cls-3" points="583.13 37.76 581.45 40.45 581.43 40.43 572.1 34.95 571.5 34.61 573.17 31.73 573.19 31.74 583.11 37.76 583.13 37.76"/>
        <polygon class="cls-3" points="581.45 40.45 418.63 300.66 416.12 299.2 571.5 34.61 572.1 34.95 581.43 40.43 581.45 40.45"/>
      </g>
      <g>
        <polyline class="cls-4" points="573.17 31.73 571.5 34.61 416.12 299.2 415.69 299.93"/>
        <polyline class="cls-4" points="579.26 21.39 579.19 21.52 573.19 31.74"/>
        <polyline class="cls-4" points="590.35 26.26 583.13 37.76 581.45 40.45 418.63 300.66"/>
        <path class="cls-4" d="M579.19,21.52a3.28,3.28,0,0,1,.38-1.83c1.23-2.24,4.86-2.84,8.13-1.36s4.92,4.48,3.71,6.74a3.3,3.3,0,0,1-1.06,1.17v0c-1.66,1.22-4.47,1.35-7.07.17C580.85,25.32,579.32,23.38,579.19,21.52Z"/>
        <polyline class="cls-4" points="573.17 31.73 573.19 31.74 583.11 37.76"/>
        <line class="cls-4" x1="572.09" y1="34.95" x2="581.43" y2="40.43"/>
      </g>
    </g>
    <g>
      <ellipse class="cls-1" cx="133.06" cy="283.71" rx="120.43" ry="119.55"/>
      <ellipse class="cls-2" cx="133.06" cy="283.71" rx="109.61" ry="108.81"/>
      <ellipse class="cls-1" cx="133.06" cy="283.71" rx="98.28" ry="97.56"/>
      <ellipse class="cls-2" cx="133.06" cy="283.71" rx="86.76" ry="87.62"/>
      <ellipse class="cls-1" cx="133.06" cy="283.71" rx="78.54" ry="75.07"/>
      <ellipse class="cls-2" cx="133.06" cy="283.71" rx="68.24" ry="63.25"/>
      <ellipse class="cls-1" cx="133.06" cy="283.71" rx="55.95" ry="51.86"/>
      <ellipse class="cls-2" cx="133.06" cy="283.71" rx="45.02" ry="40.77"/>
      <ellipse class="cls-1" cx="133.06" cy="283.71" rx="34.15" ry="30.92"/>
    </g>
    <g>
      <ellipse class="cls-1" cx="261.07" cy="298.19" rx="161.73" ry="105.83"/>
      <ellipse class="cls-2" cx="261.07" cy="298.19" rx="147.2" ry="96.33"/>
      <ellipse class="cls-1" cx="261.07" cy="298.19" rx="131.98" ry="86.37"/>
      <ellipse class="cls-2" cx="261.07" cy="298.19" rx="116.51" ry="77.57"/>
      <ellipse class="cls-1" cx="261.07" cy="298.19" rx="105.47" ry="66.46"/>
      <ellipse class="cls-2" cx="261.07" cy="298.19" rx="91.63" ry="55.99"/>
      <ellipse class="cls-1" cx="261.07" cy="298.19" rx="75.13" ry="45.91"/>
      <ellipse class="cls-2" cx="261.07" cy="298.19" rx="60.46" ry="36.09"/>
      <ellipse class="cls-1" cx="261.07" cy="298.19" rx="45.86" ry="27.37"/>
    </g>
    <path class="cls-5" d="M594.85,266c-.3,4.7-.66,9.33-1.13,13.9q-.75,7.86-1.84,15.49c-.38,2.72-.79,5.44-1.22,8.12-.86,5.26-1.84,10.41-2.9,15.49C568,413.05,513,478.68,444,515.82V565.2H150.26V515.85C81.27,478.68,26.2,413.07,6.45,319c-1.06-5.08-2-10.26-2.87-15.49-.46-2.68-.86-5.4-1.25-8.12Q1.28,287.73.52,279.86C0,275.29-.32,270.66-.61,266H517C564.29,266,594.85,266,594.85,266Z"/>
    <polyline class="cls-6" points="238.83 379.1 206.31 345.44 171.97 379.4"/>
    <polyline class="cls-7" points="417.47 379.1 384.95 345.44 350.61 379.4"/>
    <path class="cls-8" d="M250.16,436.6c3.41,26.47,22.46,46.76,45.53,46.76s42.13-20.29,45.53-46.76Z"/>
    <path class="cls-9" d="M597.31,263.88q-.75,13.83-1.85,27.27H-.86q-1.07-13.42-1.83-27.27Z"/>
    <ellipse class="cls-10" cx="205.4" cy="408.65" rx="22.94" ry="14.47"/>
    <ellipse class="cls-10" cx="384.04" cy="408.65" rx="22.94" ry="14.47"/>
    <rect class="cls-11" x="149.85" y="514.25" width="293.42" height="6.63"/>
  </g>
</svg>
